<svg id="b" xmlns="http://www.w3.org/2000/svg" width="372.252" height="206.846" viewBox="0 0 372.252 206.846"><defs><style>.g{fill:#211715;}.g,.h,.i{stroke-width:0px;}.h{fill:#fff;}.i{fill:#fcdc4a;}</style></defs><g id="c"><g id="d"><path class="h" d="M280.1,2.01H4.1c-1.105,0-2,.895-2,2v138.793c0,1.105.895,2,2,2,92.003,0,184.001,0,276,0,1.105,0,2-.903,2-2.008,0-49.111,0-90.202,0-138.778,0-1.105-.895-2.007-2-2.007Z"></path><path class="h" d="M349.645,123.145c-.693-1.523-2.228-2.58-4.013-2.581-8.413-.003-26.155-.011-34.986-.014-2.436,0-4.411,1.966-4.416,4.402-.032,15.663-.105,49.293-.048,64.917-2.517-.003,29.295-.003,43.857-.003,0-19.925,0-44.242,0-64.892,0-.653-.141-1.272-.395-1.828Z"></path><rect class="h" x="344.718" y="149.494" width="11.971" height="6.152" rx="3.076" ry="3.076"></rect><path class="h" d="M328.104,74.182c.513-.121,1.055-.114,1.557.042,5.717-1.864,13.223-5.106,17.247-7.443,1.264.595,1.958.901,3.121,2.028,1.528,1.481,2.993,3.513,3.642,5.351h.963c1.239-.294,2.659.293,3.279,1.445.647,1.201.472,2.827-.27,4.013-.717,1.147-1.93,2.099-3.181,2.564-.494,1.508-1.35,3.293-2.804,4.96-1.833,2.1-3.887,3.291-6.285,3.8-1.103.234-2.172.289-3.187.322-1.016-.023-1.987-.121-2.941-.284-2.419-.411-4.721-1.662-6.577-3.745-1.457-1.635-2.33-3.391-2.844-4.879-1.364-.446-2.716-1.513-3.463-2.796-.704-1.209-.829-2.839-.144-4.019.407-.701,1.114-1.176,1.887-1.359Z"></path><path class="h" d="M308.612,189.865h-2.553v6.753c14.66,0,29.32,0,43.98,0v-6.753c-13.809,0-27.618,0-41.427,0Z"></path><path class="h" d="M328.121,157.519c.005-1.203-.424-2.665-1.313-3.611-1.247-1.327-3.539-1.969-5.108-1.969-4.868,0-6.404,1.154-7.784,2.684-1.275,1.414-2.102,4.552-2.154,7.113-.086,4.265.604,16.982.845,19.188.094.858.366,1.343,1.408,1.343,2.747,0,10.136.036,12.885.036h2.44c2.749,0,10.139-.036,12.885-.036,1.042,0,1.329-.484,1.408-1.343.248-2.694.665-14.444.665-19.071,0-3.025-.699-5.815-1.974-7.229-1.379-1.529-2.916-2.684-7.784-2.684-1.569,0-3.861.643-5.108,1.969-.889.946-1.318,2.408-1.313,3.611h0Z"></path><path class="h" d="M339.737,145.017c-1.221-.341-2.511-.35-3.541.008-1.947.677-4.288,3.724-3.341,6.034.623,1.519,2.541,1.919,3.874,2.313,1.159.343,2.595.719,3.427.567.921-.169,1.709-.513,2.381-1.309,1.085-1.286,1.467-3.298.838-4.786-.65-1.536-2.217-2.431-3.637-2.828Z"></path><path class="h" d="M314.488,145.017c1.221-.341,2.511-.35,3.541.008,1.947.677,4.288,3.724,3.341,6.034-.623,1.519-2.541,1.919-3.874,2.313-1.159.343-2.595.719-3.427.567-.921-.169-1.709-.513-2.381-1.309-1.085-1.286-1.467-3.298-.838-4.786.65-1.536,2.217-2.431,3.637-2.828Z"></path><path class="h" d="M317.768,194.245c-.855-.093-1.681-.271-2.421-.535-2.659-.949-4.08-2.878-3.616-4.659.18-.694.613-1.357,1.078-2.005.378-.527.778-1.048,1.201-1.563.406-.494.844-.992,1.525-1.372,1.287-.72,3.879-.613,5.379-.613,1.054,0,1.93.309,2.61.722.605.368,1.005.829,1.397,1.282,1.279,1.48,2.595,3.108,1.986,4.723-.162.43-.457.84-.785,1.237-.539.653-1.184,1.29-2.091,1.791-1.629.9-4.045,1.233-6.262.993Z"></path><path class="h" d="M338.176,194.245c.855-.093,1.681-.271,2.421-.535,2.659-.949,4.08-2.878,3.616-4.659-.18-.694-.613-1.357-1.078-2.005-.378-.527-.778-1.048-1.201-1.563-.406-.494-.844-.992-1.525-1.372-1.287-.72-3.879-.613-5.379-.613-1.054,0-1.93.309-2.61.722-.605.368-1.005.829-1.397,1.282-1.279,1.48-2.595,3.108-1.986,4.723.162.43.457.84.785,1.237.539.653,1.184,1.29,2.091,1.791,1.629.9,4.045,1.233,6.262.993Z"></path><path class="h" d="M330.916,91.67c.482,1.59,1.065,2.952,2.787,5.272,1.202,1.62,3.426,3.511,5.056,4.444,1.03-.302,2.214.019,2.975.782.298-2.14.665-3.585.515-5.096-.375-3.78-2.101-8.261-4.881-10.801-.736-.673-1.248-1.128-1.823-1.562-.834-.629-1.909-1.22-2.604-1.507-1.882-.778-4.103-1.355-7.076-1.355-4.875,0-9.214,2.511-11.139,4.355-3.285,3.145-5.475,8.178-4.243,16.29.692-.935,1.952-1.379,3.07-1.131,3.346-.541,13.158-5.707,17.362-9.69"></path><path class="h" d="M330.916,91.67c-4.205,3.983-14.016,9.149-17.362,9.69-1.212-.268-2.591.276-3.231,1.378-.686,1.182-.561,2.815.144,4.026.75,1.288,2.107,2.358,3.476,2.803.512,1.497,1.386,3.252,2.842,4.886,1.859,2.086,4.165,3.339,6.588,3.751.956.163,1.928.261,2.946.284,1.017-.033,2.087-.088,3.193-.323,2.402-.51,4.46-1.703,6.296-3.807,1.435-1.644,2.289-3.404,2.784-4.906.065-.028.127-.051.127-.051,1.264-.461,2.493-1.421,3.217-2.58.743-1.188.919-2.817.27-4.02s-2.167-1.791-3.448-1.415c-1.63-.933-3.854-2.823-5.056-4.444-1.722-2.32-2.304-3.682-2.787-5.272"></path><path class="h" d="M355.448,115.23c-1.254-.608-2.65-.87-3.834-.684-2.24.352-5.37,3.191-4.797,5.877.377,1.766,2.374,2.574,3.74,3.262,1.187.598,2.668,1.287,3.598,1.285,1.03-.002,1.951-.221,2.833-.951,1.426-1.18,2.234-3.282,1.844-5.016-.402-1.789-1.923-3.065-3.383-3.772Z"></path><path class="h" d="M355.448,115.23c-1.254-.608-2.65-.87-3.834-.684-2.24.352-5.37,3.191-4.797,5.877.377,1.766,2.374,2.574,3.74,3.262,1.187.598,2.668,1.287,3.598,1.285,1.03-.002,1.951-.221,2.833-.951,1.426-1.18,2.234-3.282,1.844-5.016-.402-1.789-1.923-3.065-3.383-3.772Z"></path><g id="e"><path class="i" d="M70.604,99.797c0-1.653,0-3.325-.002-4.997,6.358,0,19.549,0,34.005,0v31.209c-8.33,0-20.925,0-34-.003,0,0,0-12.438-.004-26.209Z" style="fill: rgb(121, 211, 241);"></path><path class="i" d="M16.107,99.797c0-1.653,0-3.325-.002-4.997,6.358,0,19.549,0,34.005,0v31.209c-8.33,0-20.925,0-34-.003,0,0,0-12.438-.004-26.209Z" style="fill: rgb(121, 211, 241);"></path><path class="i" d="M213.601,99.797c0-1.653,0-3.325.002-4.997-6.358,0-19.549,0-34.005,0v31.209c8.33,0,20.925,0,34-.003,0,0,0-12.438.004-26.209Z" style="fill: rgb(121, 211, 241);"></path><path class="i" d="M268.099,99.797c0-1.653,0-3.325.002-4.997-6.358,0-19.549,0-34.005,0v31.209c8.33,0,20.925,0,34-.003,0,0,0-12.438.004-26.209Z" style="fill: rgb(121, 211, 241);"></path><path class="i" d="M213.601,37.797c0-1.653,0-3.325.002-4.997-6.358,0-19.549,0-34.005,0v31.209c8.33,0,20.925,0,34-.003,0,0,0-12.438.004-26.209Z" style="fill: rgb(121, 211, 241);"></path><path class="i" d="M268.099,37.797c0-1.653,0-3.325.002-4.997-6.358,0-19.549,0-34.005,0v31.209c8.33,0,20.925,0,34-.003,0,0,0-12.438.004-26.209Z" style="fill: rgb(121, 211, 241);"></path><path class="i" d="M70.604,37.797c0-1.653,0-3.325-.002-4.997,6.358,0,19.549,0,34.005,0v31.209c-8.33,0-20.925,0-34-.003,0,0,0-12.438-.004-26.209Z" style="fill: rgb(121, 211, 241);"></path><path class="i" d="M125.102,37.797c0-1.653,0-3.325-.002-4.997,6.358,0,19.549,0,34.005,0v31.209c-8.33,0-20.925,0-34-.003,0,0,0-12.438-.004-26.209Z" style="fill: rgb(121, 211, 241);"></path><path class="i" d="M16.107,37.797c0-1.653,0-3.325-.002-4.997,6.358,0,19.549,0,34.005,0v31.209c-8.33,0-20.925,0-34-.003,0,0,0-12.438-.004-26.209Z" style="fill: rgb(121, 211, 241);"></path><path class="i" d="M337.092,55.306c-3,.787-5.272,2.269-7.262,4.505-3.161,3.552-4.416,9.726-2.986,14.995.77-.64,1.866-.878,2.819-.582,5.717-1.864,13.223-5.106,17.247-7.443,1.264.595,1.959.901,3.121,2.028,1.528,1.481,2.993,3.513,3.642,5.351h.963c.673-.159,1.399-.059,2.021.25,1.661-5.427.494-11.193-2.992-14.187,0,0-1.576-1.354-3.153-2.708l-.07-.074c-2.096-2.198-5.734-3.019-9.595-2.734-1.373.101-2.616.3-3.755.598Z" style="fill: rgb(121, 211, 241);"></path><path class="i" d="M350.344,130.545c-.798-1.87-1.778-3.545-3.407-4.806-2.529-1.958-5.767-3.404-8.779-4.449l-2.953-1.152s-.42-.164-1.061-.41c-4.191,4.024-10.809,4.042-15.021.053-.565.215-.927.357-.927.357l-2.953,1.152c-3.012,1.045-6.25,2.491-8.779,4.449-1.629,1.261-2.609,2.936-3.407,4.806-1.133,2.653-2.162,5.353-3.008,8.112-.82,2.677-1.782,5.526-1.478,8.352.108,1.008.307,2.022.764,2.926,1.211,2.392,4.06,3.617,6.641,3.617h6.885c-.424-.209-.815-.499-1.171-.921-1.085-1.286-1.467-3.298-.838-4.786.65-1.536,2.217-2.431,3.637-2.828,1.221-.341,2.511-.35,3.541.008,1.947.677,4.288,3.724,3.341,6.034-.623,1.519-2.541,1.919-3.874,2.313-.203.06-.421.12-.637.179h20.506c-.216-.059-.434-.119-.637-.179-1.333-.394-3.251-.794-3.874-2.313-.947-2.31,1.394-5.357,3.341-6.034,1.03-.358,2.321-.349,3.541-.008,1.42.396,2.987,1.292,3.637,2.828.63,1.488.247,3.5-.838,4.786-.356.422-.747.711-1.171.921h6.059c2.581,0,5.43-1.225,6.641-3.617.458-.904.656-1.918.764-2.926.304-2.826-.658-5.675-1.478-8.352-.845-2.759-1.875-5.459-3.008-8.112Z" style="fill: rgb(121, 211, 241);"></path><path class="i" d="M354.154,94.264s-2.49-1.068-2.953-1.266c-.042.365-.073.633-.073.633-.032.272-.836,9.244-1.087,12.267h-7.67c-.109.325-.253.637-.432.923-.724,1.158-1.953,2.118-3.217,2.58,0,0-.063.023-.127.051-.496,1.502-1.35,3.262-2.784,4.906-.373.428-.758.808-1.151,1.163-1.263,3.158-2.304,5.835-2.136,5.666.225-.225,7.866-.197,14.517-.13-.097-.197-.174-.407-.223-.634-.573-2.686,2.558-5.525,4.797-5.877,1.185-.186,2.58.077,3.834.684.626.303,1.259.718,1.814,1.226.186-4.606.693-17.964.79-20.4-1.335-.667-2.887-1.414-3.899-1.793Z" style="fill: rgb(121, 211, 241);"></path></g></g><g id="f"><path class="g" d="M72.608,126.006v-31.203c0-2.574-4-2.578-4,0v31.203c0,2.574,4,2.578,4,0h0Z"></path><path class="g" d="M52.111,126.006v-31.203c0-2.574-4-2.578-4,0v31.203c0,2.574,4,2.578,4,0h0Z"></path><path class="g" d="M18.111,126.01v-31.203c0-2.574-4-2.578-4,0v31.203c0,2.574,4,2.578,4,0h0Z"></path><path class="g" d="M215.598,126.006v-31.203c0-2.574-4-2.578-4,0v31.203c0,2.574,4,2.578,4,0h0Z"></path><path class="g" d="M236.095,126.006v-31.203c0-2.574-4-2.578-4,0v31.203c0,2.574,4,2.578,4,0h0Z"></path><path class="g" d="M270.095,126.006v-31.203c0-2.574-4-2.578-4,0v31.203c0,2.574,4,2.578,4,0h0Z"></path><path class="g" d="M181.598,64.006v-31.203c0-2.574-4-2.578-4,0v31.203c0,2.574,4,2.578,4,0h0Z"></path><path class="g" d="M215.598,64.006v-31.203c0-2.574-4-2.578-4,0v31.203c0,2.574,4,2.578,4,0h0Z"></path><path class="g" d="M236.095,64.006v-31.203c0-2.574-4-2.578-4,0v31.203c0,2.574,4,2.578,4,0h0Z"></path><path class="g" d="M270.095,64.006v-31.203c0-2.574-4-2.578-4,0v31.203c0,2.574,4,2.578,4,0h0Z"></path><path class="g" d="M280.1.01h-28.919c-10.373,0-20.747,0-31.12,0-12.586,0-25.172,0-37.758,0h-82.017c-12.479,0-24.958,0-37.437,0-10.27,0-20.54,0-30.81,0H5.846C4.573.01,3.232-.117,2.081.556-.282,1.939.1,4.659.1,6.958v43.077c0,13.656,0,27.312,0,40.968s0,23.536,0,35.304c0,5.446-.226,10.946,0,16.389.043,1.036.332,2.035,1.056,2.81.96,1.027,2.155,1.271,3.504,1.297,1.678.032,3.36,0,5.039,0,6.998,0,13.996,0,20.994,0,13.903,0,27.806,0,41.709,0,27.619,0,55.237,0,82.856,0,27.712,0,55.423,0,83.135,0,6.905,0,13.809,0,20.714,0,3.452,0,6.905,0,10.357,0,3.522,0,7.123.222,10.637,0,1.237-.078,2.31-.529,3.1-1.504.994-1.227.9-2.68.9-4.175,0-3.483,0-6.966,0-10.448,0-6.593,0-13.186,0-19.778,0-25.436,0-50.871,0-76.307,0-6.372,0-12.744,0-19.116,0-3.268,0-6.536,0-9.805,0-1.336.105-2.641-.645-3.814-.771-1.205-1.978-1.722-3.355-1.846-2.563-.231-2.547,3.77,0,4,.241.022,0,16.856,0,18.436,0,6.307,0,12.614,0,18.922,0,12.487,0,24.974,0,37.462,0,12.627,0,25.254,0,37.881,0,6.662,0,13.325,0,19.987,0,1.568,0,3.137,0,4.705,0,.237.138,1.26,0,1.399-.223.224-1.87.002-2.239.002-3.359,0-6.718,0-10.077,0-27.338,0-54.677,0-82.015,0-27.245,0-54.491,0-81.736,0-27.246,0-54.492,0-81.737,0-3.452,0-6.905,0-10.357,0-1.586,0-3.173,0-4.759,0-.399,0-2.805.27-3.079,0-.107-.106,0-.881,0-1.022v-7.253c0-9.989,0-19.978,0-29.966s0-26.54,0-39.809V27.615c0-7.293,0-14.586,0-21.878,0-.492-.204-1.518.165-1.727.201-.113.807,0,1.033,0h45.388c11.618,0,23.237,0,34.855,0h118.991c11.284,0,22.568,0,33.852,0,8.545,0,17.09,0,25.636,0h16.081c2.574,0,2.578-4,0-4Z"></path><path class="g" d="M104.105,94.806v-13.227l-2,2h80l-2-2v13.22c0,2.574,4,2.578,4,0v-13.22c0-1.081-.916-2-2-2h-80c-1.081,0-2,.916-2,2v13.227c0,2.574,4,2.578,4,0h0Z"></path><path class="g" d="M182.105,128.01h100c2.574,0,2.578-4,0-4h-100c-2.574,0-2.578,4,0,4h0Z"></path><path class="g" d="M2.1,96.8h165.537c19.669,0,39.339,0,59.008,0h55.46c2.574,0,2.578-4,0-4H2.1c-2.574,0-2.578,4,0,4h0Z"></path><path class="g" d="M106.608,64.006v-31.203c0-2.574-4-2.578-4,0v31.203c0,2.574,4,2.578,4,0h0Z"></path><path class="g" d="M72.608,64.006v-31.203c0-2.574-4-2.578-4,0v31.203c0,2.574,4,2.578,4,0h0Z"></path><path class="g" d="M127.1,64.006v-31.203c0-2.574-4-2.578-4,0v31.203c0,2.574,4,2.578,4,0h0Z"></path><path class="g" d="M161.105,64.006v-31.203c0-2.574-4-2.578-4,0v31.203c0,2.574,4,2.578,4,0h0Z"></path><path class="g" d="M52.111,64.006v-31.203c0-2.574-4-2.578-4,0v31.203c0,2.574,4,2.578,4,0h0Z"></path><path class="g" d="M35.108,64.006v-31.203c0-2.574-4-2.578-4,0v31.203c0,2.574,4,2.578,4,0h0Z"></path><path class="g" d="M89.605,64.006v-31.203c0-2.574-4-2.578-4,0v31.203c0,2.574,4,2.578,4,0h0Z"></path><path class="g" d="M144.103,64.006v-31.203c0-2.574-4-2.578-4,0v31.203c0,2.574,4,2.578,4,0h0Z"></path><path class="g" d="M198.6,64.006v-31.203c0-2.574-4-2.578-4,0v31.203c0,2.574,4,2.578,4,0h0Z"></path><path class="g" d="M253.098,64.006v-31.203c0-2.574-4-2.578-4,0v31.203c0,2.574,4,2.578,4,0h0Z"></path><path class="g" d="M35.108,126.005v-30.203c0-2.574-4-2.578-4,0v30.203c0,2.574,4,2.578,4,0h0Z"></path><path class="g" d="M89.605,126.005v-30.203c0-2.574-4-2.578-4,0v30.203c0,2.574,4,2.578,4,0h0Z"></path><path class="g" d="M198.6,126.006v-30.203c0-2.574-4-2.578-4,0v30.203c0,2.574,4,2.578,4,0h0Z"></path><path class="g" d="M253.098,126.006v-30.203c0-2.574-4-2.578-4,0v30.203c0,2.574,4,2.578,4,0h0Z"></path><path class="g" d="M18.111,64.006v-31.203c0-2.574-4-2.578-4,0v31.203c0,2.574,4,2.578,4,0h0Z"></path><path class="g" d="M102.1,124.01H2.1c-2.574,0-2.578,4,0,4h100c2.574,0,2.578-4,0-4h0Z"></path><path class="g" d="M106.608,144.8v-49.994c0-2.574-4-2.578-4,0v49.994c0,2.574,4,2.578,4,0h0Z"></path><path class="g" d="M116.608,144.803v-50.003c0-2.574-4-2.578-4,0v50.003c0,2.574,4,2.578,4,0h0Z"></path><path class="g" d="M177.598,94.806v49.994c0,2.574,4,2.578,4,0v-49.994c0-2.574-4-2.578-4,0h0Z"></path><path class="g" d="M171.598,144.803v-50.003c0-2.574-4-2.578-4,0v50.003c0,2.574,4,2.578,4,0h0Z"></path><path class="g" d="M2.1,66.01h280.005c2.574,0,2.578-4,0-4H2.1c-2.574,0-2.578,4,0,4h0Z"></path><path class="g" d="M2.1,34.8h279.249c2.574,0,2.578-4,0-4H2.1c-2.574,0-2.578,4,0,4h0Z"></path><path class="g" d="M359.222,131.043c3.562.865,7.499.755,10.275-1.929,2.227-2.153,3.067-5.351,2.654-8.37-.326-2.379-1.012-4.74-1.46-7.103-.469-2.48-.945-4.959-1.629-7.392-.641-2.281-1.337-4.8-2.696-6.774-1.314-1.908-3.214-3.04-5.232-4.091s-4.075-2.093-6.196-2.951c.439.177-.103-.037-.248-.099-.309-.132-.618-.265-.927-.398l-1.626-.698c-.992-.425-2.144-.295-2.736.718-.493.842-.281,2.308.718,2.736,2.156.925,4.331,1.809,6.435,2.848,1.576.778,3.18,1.548,4.671,2.482,1.645,1.03,2.419,2.529,3.048,4.325,1.464,4.184,2.171,8.525,3.045,12.855.593,2.937,1.679,5.712-.084,8.442-.253.392.045-.014-.149.2-.178.196-.357.384-.549.567-.261.248-.051.103-.458.35-.25.152-.505.309-.776.422-1.447.601-3.399.396-5.015.004-2.501-.607-3.568,3.249-1.063,3.857h0Z"></path><path class="g" d="M359.267,116.446c.276-6.919.403-13.857.81-20.77.151-2.571-3.849-2.563-4,0-.407,6.913-.534,13.851-.81,20.77-.103,2.574,3.898,2.57,4,0h0Z"></path><path class="g" d="M360.211,132.047c0,5.816,0,11.631,0,17.447h4c0-3.526,0-7.052,0-10.578,0-2.574-4-2.578-4,0,0,3.526,0,7.052,0,10.578,0,2.574,4,2.578,4,0,0-5.816,0-11.631,0-17.447,0-2.574-4-2.578-4,0h0Z"></path><path class="g" d="M342.367,107.896h7.67c1.147,0,1.91-.92,2-2,.339-4.09.668-8.187,1.09-12.27.108-1.044-.997-2.045-2-2-1.176.053-1.884.882-2,2-.422,4.083-.751,8.18-1.09,12.27l2-2h-7.67c-1.046,0-2.048.92-2,2s.879,2,2,2h0Z"></path><path class="g" d="M351.856,56.027c-2.653-2.65-6.545-3.482-10.186-3.363-3.419.111-6.948.879-9.838,2.781-6.225,4.094-8.495,11.651-7.178,18.775.196,1.063,1.483,1.665,2.46,1.397,1.116-.307,1.594-1.394,1.397-2.46-.974-5.272.71-11.216,5.34-14.258,2.206-1.449,4.793-2.078,7.409-2.217,2.695-.143,5.766.174,7.768,2.174,1.823,1.822,4.653-1.006,2.828-2.828h0Z"></path><path class="g" d="M358.709,74.518c1.442-5.321.726-11.886-3.63-15.71-.811-.712-2.03-.799-2.828,0-.727.727-.815,2.113,0,2.828.406.356.78.739,1.124,1.156.205.249-.149-.213.038.052.074.105.149.21.22.317.144.216.28.438.408.664.146.258.275.524.406.79.046.093.119.27.038.073.051.124.099.25.145.377.201.547.364,1.109.491,1.678.061.274.112.55.159.827.059.348-.026-.251.017.101.017.142.031.285.044.428.055.617.073,1.237.055,1.856-.038,1.314-.187,2.185-.543,3.501-.674,2.488,3.183,3.549,3.857,1.063h0Z"></path><path class="g" d="M345.071,77.209c-.016-.12-.172-1.316.665-2.161.549-.554,1.201-.591,1.407-.6.158-.006,1.192-.029,1.843.864.617.846.68,2.227-.058,3.155-.766.963-2.013,1.016-2.831.462-.737-.499-.93-1.114-1.026-1.719Z"></path><path class="g" d="M335.074,77.209c-.016-.12-.172-1.316.665-2.161.549-.554,1.201-.591,1.407-.6.158-.006,1.192-.029,1.843.864.617.846.68,2.227-.058,3.155-.766.963-2.013,1.016-2.831.462-.737-.499-.93-1.114-1.026-1.719Z"></path><path class="g" d="M346.702,68.893c.288.142.572.291.845.46.139.086.273.179.407.273.22.153-.115-.105-.155-.125.084.04.188.152.259.212.602.511,1.151,1.088,1.662,1.689.119.14.235.283.351.426.268.329-.197-.267-.048-.065.061.083.123.164.184.247.24.328.468.665.682,1.011.207.334.401.677.577,1.029.076.152.146.308.218.462.105.224-.171-.443-.052-.121.037.101.077.201.113.302.302.838,1,1.468,1.929,1.468h1.055c1.046,0,2.048-.92,2-2s-.879-2-2-2h-1.055l1.929,1.468c-.665-1.846-1.719-3.464-2.975-4.961-1.093-1.303-2.371-2.47-3.905-3.228-.937-.462-2.208-.283-2.736.718-.477.902-.284,2.242.718,2.736h0Z"></path><path class="g" d="M355.004,76.12c.104-.028.213-.043.315-.072-.497.141-.316.036-.103.032.087-.002.25-.027.323.012-.087-.046-.507-.089-.158-.014.106.023.21.051.313.085.328.107-.045.015-.125-.063.066.065.203.102.287.152.164.099.303.29-.05-.064.076.077.164.141.24.219l.074.079c.134.157.098.107-.108-.15.02.077.108.163.147.232.22.388-.06-.232,0-.046.052.163.079.518.172.643-.037-.31-.048-.386-.033-.228.006.061.01.123.012.185.005.124.004.248-.002.372l-.008.124c-.022.219-.013.166.026-.159-.047.053-.046.239-.062.307-.029.122-.063.243-.102.362-.115.351-.053-.006.046-.068-.065.041-.121.256-.165.335-.06.109-.124.215-.192.318-.034.052-.07.104-.106.155-.087.121-.046.07.124-.153-.033-.004-.225.267-.246.291-.157.175-.325.34-.5.497-.016.014-.233.218-.245.209.237-.179.269-.205.098-.078l-.105.074c-.21.145-.428.279-.652.4-.111.06-.225.112-.337.169-.346.174.408-.159.021-.013-.499.188-.917.444-1.195.919-.251.429-.357,1.061-.202,1.541.309.954,1.412,1.792,2.46,1.397,2.879-1.086,5.381-3.629,5.349-6.877-.017-1.72-.775-3.259-2.168-4.265-1.191-.86-2.799-1.097-4.205-.716-1.009.274-1.729,1.435-1.397,2.46.335,1.034,1.378,1.691,2.46,1.397h0Z"></path><path class="g" d="M330.234,72.308c-1.387-.424-3.02-.192-4.22.632-1.425.978-2.177,2.513-2.247,4.227-.068,1.65.593,3.165,1.602,4.43.945,1.185,2.204,1.993,3.59,2.566.446.184,1.146.03,1.541-.202.415-.243.811-.718.919-1.195.117-.512.091-1.087-.202-1.541-.301-.467-.686-.709-1.195-.919.546.226.133.052.027-.001-.112-.056-.223-.116-.332-.179-.204-.117-.393-.252-.588-.383-.12-.088-.07-.049.149.118-.05-.04-.1-.081-.149-.123-.082-.07-.162-.141-.241-.214-.188-.176-.36-.365-.531-.557-.293-.329.242.37.001.004-.069-.105-.142-.206-.207-.313-.054-.088-.105-.178-.153-.269-.211-.401.057.203-.004.024-.075-.219-.149-.433-.199-.66-.045-.205.011-.441-.009.037.005-.12-.021-.253-.023-.374-.002-.124.008-.248.01-.372.005-.363-.076.344-.017.105.035-.141.199-.504.18-.642-.127.291-.145.341-.052.149l.058-.105c.104-.178.281-.281-.062.045.078-.074.144-.164.222-.239l.08-.074c.158-.133.108-.096-.15.111.076-.022.159-.106.228-.146.07-.041.435-.2.1-.068-.326.129-.011.011.065-.013.104-.032.21-.052.315-.08.373-.101-.489.022-.103.016.108-.002.215-.003.323-.002.362.003-.477-.12-.104-.019.104.028.209.051.313.082,1.001.306,2.225-.364,2.46-1.397.246-1.081-.325-2.133-1.397-2.46h0Z"></path><path class="g" d="M340.687,93.176c.822,0,1.622.095,2.449.045.927-.056,1.864-.155,2.773-.347,1.537-.324,3.059-.961,4.358-1.846,2.902-1.977,4.991-4.937,6.099-8.251.343-1.024-.396-2.185-1.397-2.46-1.091-.3-2.116.369-2.46,1.397-.104.312-.213.623-.34.927.083-.198-.016.032-.049.1-.079.164-.156.329-.238.491-.318.626-.682,1.228-1.089,1.8-.387.544-.859,1.061-1.348,1.538-.559.545-.785.737-1.372,1.121-.262.171-.53.331-.806.478-.121.065-.244.127-.367.187.007-.003-.469.209-.323.15-.367.149-1.17.393-1.73.51-.621.13-1.255.181-1.95.217-.744.039-1.469-.059-2.209-.059-1.081,0-2,.919-2,2s.915,2,2,2h0Z"></path><path class="g" d="M345.654,65.195c-5.184,2.937-10.833,5.229-16.483,7.094-1.025.338-1.693,1.381-1.397,2.46.276,1.004,1.43,1.737,2.46,1.397,5.968-1.97,11.963-4.395,17.438-7.497,2.24-1.269.226-4.726-2.019-3.454h0Z"></path><path class="g" d="M352.037,188.766v-33.12c0-2.574-4-2.578-4,0v33.12c0,2.574,4,2.578,4,0h0Z"></path><path class="g" d="M308.177,188.766c-.039-11.04-.019-22.08-.01-33.12.002-2.574-3.998-2.578-4,0-.009,11.04-.029,22.08.01,33.12.009,2.573,4.009,2.578,4,0h0Z"></path><path class="g" d="M352.037,129.856v-3.751c0-1.356-.053-2.605-.623-3.858-.948-2.085-3.003-3.429-5.254-3.648-1.996-.195-4.08-.032-6.084-.035-2.299-.003-4.599-.007-6.898-.007-2.574,0-2.578,4,0,4,3.843,0,7.685.01,11.528.01,1.378,0,2.498.11,3.1,1.373.364.765.232,1.668.232,2.49v3.428c0,2.574,4,2.578,4,0h0Z"></path><path class="g" d="M320.037,118.556c-1.84,0-3.681-.004-5.521-.008-1.691-.003-3.484-.17-5.154.133-1.644.297-3.08,1.336-4.026,2.688-.966,1.381-1.109,2.943-1.109,4.577,0,1.081.919,2,2,2s2-.915,2-2c0-.33-.007-.66,0-.99.003-.127.008-.254.018-.381-.028.374.014-.027.035-.112.036-.149.082-.293.129-.44-.061.187-.072.128.011-.022.072-.132.144-.261.221-.39s.242-.31.057-.099c.098-.112.202-.217.306-.323.026-.026.301-.264.136-.133-.124.099.623-.367.478-.296-.206.099.266-.092.27-.093.118-.036.238-.06.356-.092.358-.099-.107-.011.117-.017.164-.005.327-.01.491-.01,3.062-.011,6.123.01,9.185.01,1.081,0,2-.919,2-2s-.915-2-2-2h0Z"></path><path class="g" d="M350.037,157.146h-5.95c-1.046,0-2.048.92-2,2s.879,2,2,2h5.95c1.046,0,2.048-.92,2-2s-.879-2-2-2h0Z"></path><path class="g" d="M312.047,157.146h-5.85c-1.046,0-2.048.92-2,2s.879,2,2,2h5.85c1.046,0,2.048-.92,2-2s-.879-2-2-2h0Z"></path><path class="g" d="M349.887,164.996h-5.67c-1.046,0-2.048.92-2,2s.879,2,2,2h5.67c1.046,0,2.048-.92,2-2s-.879-2-2-2h0Z"></path><path class="g" d="M311.847,164.996h-5.65c-1.046,0-2.048.92-2,2s.879,2,2,2h5.65c1.046,0,2.048-.92,2-2s-.879-2-2-2h0Z"></path><path class="g" d="M328.927,187.866h-1.91c-.275-.01-.532.047-.771.172-.248.081-.463.219-.644.414-.195.181-.333.396-.414.644-.125.238-.183.495-.172.771l.071.532c.095.339.266.633.514.883l.405.313c.312.181.648.272,1.009.273h1.91c.275.01.532-.047.771-.172.248-.081.463-.219.644-.414.195-.181.333-.396.414-.644.125-.238.183-.495.172-.771l-.071-.532c-.095-.339-.266-.633-.514-.883l-.405-.313c-.312-.181-.648-.272-1.009-.273h0Z"></path><path class="g" d="M344.297,191.866h5.74l-2-2v6.75l2-2h-43.98l2,2v-6.75l-2,2h5.59c2.574,0,2.578-4,0-4h-5.59c-1.081,0-2,.916-2,2v6.75c0,1.081.916,2,2,2h43.98c1.081,0,2-.916,2-2v-6.75c0-1.081-.916-2-2-2h-5.74c-2.574,0-2.578,4,0,4h0Z"></path><path class="g" d="M325.911,188.732v5.195c0,1.046.92,2.048,2,2s2-.879,2-2v-.207c0-1.046-.92-2.048-2-2s-2,.879-2,2v.207c0,1.046.92,2.048,2,2s2-.879,2-2v-5.195c0-1.046-.92-2.048-2-2s-2,.879-2,2h0Z"></path><rect class="g" x="357.404" y="158.986" width="6.152" height="45.869" rx="3.076" ry="3.076"></rect><path class="g" d="M360.479,156.986c-2.876,0-4.978,2.364-5.076,5.138-.024.665,0,1.335,0,2v10.126c0,8.141,0,16.282,0,24.423,0,2.786-.314,5.801,2.514,7.488,3.095,1.846,7.161-.255,7.584-3.782.076-.634.054-1.27.054-1.909,0-7.546,0-15.092,0-22.638v-11.609c0-2.136.405-4.968-.78-6.857-.95-1.515-2.548-2.288-4.296-2.382-2.572-.139-2.565,3.862,0,4,1.629.088,1.076,3.211,1.076,4.253v9.83c0,7.595,0,15.19,0,22.785v3.019c0,.463.091,1.101-.177,1.502-.737,1.102-1.92.208-1.975-.798-.038-.696,0-1.406,0-2.103,0-7.172,0-14.345,0-21.517s0-7.267,0-10.901c0-1.623-.183-3.364,0-4.98.067-.592.423-1.089,1.076-1.089,2.574,0,2.578-4,0-4Z"></path><rect class="g" x="292.274" y="158.986" width="6.152" height="45.869" rx="3.076" ry="3.076"></rect><path class="g" d="M295.35,156.986c-2.876,0-4.978,2.364-5.076,5.138-.024.665,0,1.335,0,2v10.126c0,8.141,0,16.282,0,24.423,0,2.786-.314,5.801,2.514,7.488,3.095,1.846,7.161-.255,7.584-3.782.076-.634.054-1.27.054-1.909,0-7.546,0-15.092,0-22.638v-11.609c0-2.136.405-4.968-.78-6.857-.95-1.515-2.548-2.288-4.296-2.382-2.572-.139-2.565,3.862,0,4,1.629.088,1.076,3.211,1.076,4.253v9.83c0,7.595,0,15.19,0,22.785v3.019c0,.463.091,1.101-.177,1.502-.737,1.102-1.92.208-1.975-.798-.038-.696,0-1.406,0-2.103,0-7.172,0-14.345,0-21.517v-10.901c0-1.623-.183-3.364,0-4.98.067-.592.423-1.089,1.076-1.089,2.574,0,2.578-4,0-4Z"></path><path class="g" d="M298.183,148.962c-1.655,1.717-2.035,4.446-.626,6.447,1.062,1.509,2.669,2.237,4.49,2.237s3.64.031,5.458,0c2.311-.039,4.138-1.434,4.921-3.578.36-.984-.403-2.234-1.397-2.46-1.129-.257-2.075.343-2.46,1.397.168-.459-.09.138-.146.237-.128.183-.12.173.023-.03-.071.078-.145.153-.223.223-.17.145-.16.137.03-.022-.089.058-.18.112-.274.161-.203.098-.191.094.035-.014-.103.034-.208.063-.314.087-.465.134.367.033-.136,0-.024-.002-.049,0-.073,0-.111.001-.222,0-.333,0h-3.197c-.733,0-1.471-.023-2.205,0-.245-.016-.259-.01-.042.019-.123-.023-.244-.053-.364-.091-.44-.127.181.155-.192-.103-.192-.129-.204-.134-.035-.013-.091-.08-.177-.166-.256-.258.25.281-.143-.261-.183-.359.186.458-.031-.593-.002-.079-.008-.126-.008-.252,0-.378-.042.233-.04.234.006.002.027-.113.06-.225.1-.334-.093.211-.088.214.015.009.057-.099.119-.195.186-.287-.136.181-.129.187.022.017.727-.754.806-2.089,0-2.828-.786-.722-2.053-.805-2.828,0h0Z"></path><path class="g" d="M353.706,151.485c.12.028.513.162.206.025.108.048.21.112.312.171.027.015.242.191.084.053-.198-.172.311.338.147.147-.138-.16.27.485.098.105.051.113.077.236.112.354.007.025.049.321.028.108-.017-.17-.017.279-.017.363,0,.231.006-.111.015-.136-.035.087-.058.216-.081.304-.014.054-.125.265-.013.05.123-.235-.048.065-.073.105-.04.065-.086.128-.124.193.035-.06.228-.197.074-.107-.127.074-.445.365-.107.142-.127.084-.27.149-.394.236.034-.024.329-.089.122-.052-.077.014-.232.049-.299.088-.221.13.327.002.062.003-.08,0-.162.009-.243.011-.009,0-.019,0-.028,0-.087.002-.175,0-.262,0h-5.182c-.103,0-.206-.003-.309,0-.013,0-.026,0-.039,0-.037.001-.325.014-.068.013.241,0-.072-.016-.139-.032-.105-.026-.206-.064-.309-.093-.236-.068.23.159.043.005-.056-.046-.141-.083-.204-.121-.203-.123-.061-.09.031.025-.048-.06-.117-.106-.168-.165-.151-.172-.149-.242-.031-.023-.065-.12-.302-.655-.146-.231-.361-.979-1.372-1.749-2.46-1.397-.96.311-1.784,1.409-1.397,2.46.783,2.125,2.603,3.52,4.898,3.558.933.015,1.868,0,2.802,0,.964,0,1.929.009,2.893,0,2.167-.021,4.027-1.302,4.817-3.314,1.098-2.795-.693-6.031-3.59-6.704-1.017-.236-2.214.315-2.46,1.397-.233,1.021.307,2.207,1.397,2.46h0Z"></path><path class="g" d="M315.981,119.475c1.133,1.133,2.227,2.282,3.568,3.181,2.055,1.378,4.587,2.104,7.056,2.104s4.998-.727,7.056-2.104c1.341-.897,2.435-2.048,3.568-3.181,1.823-1.823-1.005-4.652-2.828-2.828-.813.813-1.603,1.734-2.541,2.406-1.567,1.124-3.393,1.705-5.255,1.707-1.849.002-3.7-.58-5.255-1.707-.935-.678-1.726-1.591-2.541-2.406-1.823-1.823-4.652,1.005-2.828,2.828h0Z"></path><path class="g" d="M317.768,192.245c-1.161-.14-2.167-.498-3.118-1.109-.21-.135-.142-.082-.415-.349-.071-.069-.136-.144-.206-.214-.227-.228.133.213-.043-.041-.12-.172-.229-.353-.317-.543.165.354-.033-.191-.056-.327.091.533.131-.445.01.083.046-.198.09-.351.149-.481.289-.635.757-1.22,1.178-1.771.307-.402.624-.804.977-1.166.107-.11.362-.332.4-.358.115-.077.241-.147.366-.208-.269.129-.04.022.116-.016.6-.15.583-.153,1.115-.194.582-.046,1.166-.057,1.75-.058.498,0,1.003-.019,1.5.012.402.025.777.136,1.075.294.891.47,1.658,1.484,2.239,2.349.166.247.349.512.464.789-.007-.016.147.546.106.366.005.021-.043.296-.005.196.018-.048.079-.173-.022.037-.121.253-.287.469-.462.677-1.668,1.975-4.172,2.293-6.801,2.035-1.077-.106-2,.995-2,2,0,1.17.92,1.894,2,2,3.475.341,7.268-.464,9.63-3.206,1.307-1.518,2.095-3.312,1.359-5.303-.616-1.665-1.895-3.302-3.215-4.483-1.399-1.251-3.129-1.747-4.979-1.757-1.511-.008-3.054-.024-4.535.318-1.677.388-2.846,1.498-3.877,2.809-1.137,1.445-2.404,2.997-2.501,4.917-.084,1.673.816,3.285,2.06,4.351,1.726,1.478,3.842,2.089,6.058,2.355,1.074.129,2-1.012,2-2,0-1.188-.923-1.871-2-2Z"></path><path class="g" d="M338.176,196.245c3.217-.386,7.303-1.886,8.013-5.52.352-1.801-.371-3.368-1.408-4.802-.996-1.377-2.073-2.956-3.669-3.687-1.469-.673-3.144-.737-4.737-.745-1.676-.008-3.286.063-4.79.899-1.525.848-2.819,2.504-3.729,3.96-1.064,1.704-1.343,3.76-.215,5.513,2.29,3.558,6.489,4.778,10.534,4.38,1.075-.106,2-.844,2-2,0-1-.918-2.106-2-2-1.209.119-2.435.114-3.557-.135-1.083-.241-1.886-.551-2.641-1.263-.353-.333-.696-.694-.946-1.104-.056-.092-.229-.464-.143-.21-.061-.179.008-.359.107-.608.384-.96,1.351-2.064,2.148-2.762.705-.618,1.34-.661,2.331-.667.517-.003,1.034-.008,1.551.006.259.007.517.017.775.033.199.013.713.064.709.064-.207-.034.204.044.246.052.097.021.194.042.29.068.121.033.241.069.36.11-.1-.035-.274-.18-.004.009.364.255.71.569,1.052.977.716.856,1.636,1.904,1.87,2.93-.11-.483-.071.391.01-.083-.025.149-.216.671-.056.327-.05.107-.107.212-.167.313-.024.04-.299.416-.165.252.127-.156-.087.085-.094.091-.126.112-.238.238-.366.349-.027.023-.332.242-.572.381-.182.106-.486.265-.608.318-.658.283-1.418.468-2.128.553-1.072.129-2,.827-2,2,0,.981.92,2.13,2,2Z"></path><path class="g" d="M330.117,157.516c0-.25.02-.498.052-.746l-.071.532c.076-.527.214-1.038.419-1.529l-.202.478c.169-.387.375-.75.634-1.085l-.313.405c.223-.277.477-.52.756-.74l-.405.313c.429-.326.898-.585,1.392-.799l-.478.202c.697-.293,1.428-.493,2.177-.602.461-.067.972-.538,1.195-.919.251-.429.357-1.061.202-1.541-.157-.484-.457-.951-.919-1.195l-.478-.202c-.354-.095-.709-.095-1.063,0-1.752.254-3.533,1.003-4.823,2.233-1.371,1.307-2.075,3.325-2.075,5.195,0,1.046.92,2.048,2,2s2-.879,2-2h0Z"></path><path class="g" d="M339.843,155.011c3.14,2.638,2.478,7.379,2.396,11.064-.087,3.923-.217,7.846-.411,11.765-.036.725-.073,1.449-.122,2.173-.013.191-.062.407-.042.595-.008.106-.017.212-.027.318-.256-.202-.04-.421.646-.659-.132-.156-1.421,0-1.642.001-.683.002-1.366.004-2.049.007-3.085.011-6.17.03-9.255.031-2.574,0-2.578,4.001,0,4,2.707,0,5.415-.016,8.122-.027,1.31-.005,2.621-.01,3.931-.013,1.45-.003,2.931-.114,3.749-1.51.59-1.006.545-2.33.611-3.467.09-1.547.156-3.096.218-4.644.148-3.695.267-7.393.315-11.091.053-4.097-.256-8.553-3.613-11.373-1.959-1.646-4.803,1.17-2.828,2.828h0Z"></path><path class="g" d="M330.117,157.516c0-2.456-1.15-4.757-3.224-6.093-.876-.564-1.906-.965-2.92-1.2-1.076-.25-2.131-.281-3.226-.277-1.046.004-2.049.917-2,2s.879,2.005,2,2c.452-.002.905-.025,1.357.004.079.005.158.011.236.019.065.006.129.013.194.021l-.334-.045c.176.074.419.07.608.112.385.085.765.195,1.136.331.089.033.226.067.305.119l-.277-.115c.066.03.132.06.198.092.179.086.354.18.524.281.168.1.323.217.487.323-.535-.346-.031-.012.107.124.076.075.144.156.217.233.164.171-.259-.384-.073-.097.123.19.244.378.347.58l.05.102c.088.192.066.136-.064-.166.019.09.07.18.1.266.068.196.126.395.173.597.025.109.045.218.067.327.08.402-.038-.503-.012-.1.012.188.026.374.026.563,0,1.046.92,2.048,2,2s2-.879,2-2h0Z"></path><path class="g" d="M313.143,152.562c-2.691,2.608-3.384,6.503-3.386,10.117-.002,3.724.195,7.455.388,11.173.132,2.555.013,5.364.572,7.876.709,3.187,4.469,2.539,6.933,2.548,3.083.011,6.165.03,9.248.031,2.574,0,2.578-3.999,0-4-2.977,0-5.953-.019-8.93-.03-.789-.003-1.577-.006-2.366-.008-.307,0-1.337-.181-1.585-.003-.359-.011-.154.202.613.64-.06-.289-.072-.323-.036-.102.035-.188-.044-.469-.06-.659-.052-.625-.094-1.251-.135-1.877-.251-3.835-.437-7.676-.56-11.517-.116-3.638-.748-8.569,2.132-11.36,1.852-1.795-.978-4.622-2.828-2.828h0Z"></path><path class="g" d="M326.121,156.171c0,6.935,0,13.869,0,20.804,0,2.574,4,2.578,4,0,0-6.935,0-13.869,0-20.804,0-2.574-4-2.578-4,0h0Z"></path><path class="g" d="M340.268,143.088c-1.541-.408-3.31-.507-4.818.091-1.206.479-2.242,1.282-3.049,2.297-1.765,2.221-2.674,5.655-.353,7.877.978.936,2.269,1.408,3.547,1.775s2.57.77,3.91.84c3.085.161,5.609-2.438,6.058-5.355.29-1.885-.118-3.609-1.322-5.1-.984-1.219-2.492-1.996-3.972-2.425-1.005-.291-2.222.353-2.46,1.397-.243,1.068.321,2.149,1.397,2.46.228.066.449.143.672.223.296.105-.081.006-.074-.031,0,.003.233.112.266.129.199.102.393.215.58.338.1.066.405.223.02-.005.123.073.237.199.338.297.125.12.432.509.184.16.107.15.375.466.392.655-.003-.036-.138-.427-.035-.06.027.096.058.189.081.286.008.033.076.509.044.179-.031-.315.002.204.003.267.001.129-.01.258-.011.387-.001.135.056.323.017-.066.019.188-.087.433-.139.613-.037.126-.086.248-.124.373-.086.284.231-.394-.017.026-.132.224-.257.447-.403.663.236-.349.086-.105.01-.035-.097.09-.202.189-.292.286-.188.203.376-.196-.027.013-.087.045-.176.101-.259.15-.368.214.064-.048.071-.02.002.007-.247.085-.283.096-.121.037-.244.067-.367.095-.075.017-.151.033-.227.046.313-.036.388-.049.225-.04-.072-.021-.6.053-.643-.029.015.028.375.071.055.001-.138-.03-.278-.053-.416-.082-.535-.115-1.06-.265-1.585-.417-.371-.108-.744-.209-1.112-.324-.196-.061-.389-.132-.583-.199-.302-.104-.16.06.032.018-.077.016-.306-.15-.366-.183-.11-.061-.406-.173-.454-.289.097.234.258.199.053.01-.285-.262-.033.051.013.051-.02,0-.148-.237-.142-.229-.183-.269.085.11.034.101-.017-.003-.068-.22-.078-.257-.127-.505.007.002-.012.004-.008,0-.004-.303-.005-.336-.022-.418-.034.051-.026.058-.052-.048.101-.462.125-.541.034-.113.078-.222.114-.335.087-.277-.23.425-.003.017.118-.213.225-.428.357-.634.053-.082.109-.161.163-.243.271-.405-.277.307.043-.057.158-.18.316-.357.489-.523.084-.081.173-.155.258-.235.052-.045.104-.089.158-.132-.211.16-.257.197-.137.111.199-.097.402-.25.595-.363.259-.153-.102.132-.155.057,0,0,.419-.135.423-.136.11-.029.219-.051.33-.075.517-.112-.381-.001.162-.013.305-.007.604-.002.908.013.563.028-.208-.072.116.015.212.057.432.091.645.148,1.01.267,2.219-.337,2.46-1.397.239-1.048-.315-2.174-1.397-2.46Z"></path><path class="g" d="M315.02,146.945c.153-.04.306-.079.46-.111.097-.02.506-.079.116-.033.243-.029.489-.042.734-.042.148,0,.3.023.448.017.303-.012-.302-.073-.012-.008.037.008.844.216.838.225-.02.029-.464-.239-.155-.057.071.042.146.077.217.118.092.054.179.116.271.171.199.119.278.045-.03-.036.142.037.31.265.416.367.191.184.358.383.535.579.198.219-.258-.398-.003,0,.052.082.111.161.163.243.105.163.203.332.292.504.013.025.216.457.082.153-.132-.3.042.129.052.16.024.073.229.62.167.675-.034.03-.019-.455-.028-.126-.003.09-.024.25,0,.336.063.226.124-.46.015-.068-.023.083-.048.176-.065.26-.084.398.039-.125.055-.095.014.026-.112.199-.131.239-.168.349.211-.137.031-.034-.044.05-.09.097-.138.142-.131.113-.131.119,0,.016l.099-.073c-.072.053-.146.104-.221.151-.076.048-.154.094-.233.137-.08.044-.163.081-.242.125-.392.217.309-.091.037-.01-.41.122-.81.281-1.222.4-.418.12-.836.245-1.256.359-.253.069-.507.134-.762.193-.139.032-.279.062-.42.09-.131.025-.571.187-.11.029-.176.06-.394.014-.577.031-.431.04.38.098.084.022-.124-.032-.25-.052-.373-.085-.097-.026-.191-.059-.288-.087-.31-.091.081.006.064.035-.039.069-.8-.567-.36-.176-.101-.09-.201-.18-.294-.278-.085-.088-.308-.391-.047-.025-.12-.169-.232-.342-.331-.524-.006-.012-.231-.472-.101-.185.129.285-.062-.187-.067-.202-.028-.086-.256-.697-.185-.764.008-.008.033.511.017.066-.006-.155-.015-.308-.01-.464,0-.035-.01-.258.018-.306-.043.28-.044.308-.005.083l.033-.146c.029-.12.076-.236.106-.356.05-.137.03-.094-.059.129.032-.07.068-.139.106-.206.061-.112.133-.216.198-.326.203-.338-.249.22.062-.069.125-.116.369-.485.548-.513-.162.025-.245.172-.043.046.127-.079.25-.162.381-.237.086-.049.173-.097.262-.142.204-.105.347-.197.057-.044.243-.129.545-.201.807-.276,1.004-.29,1.732-1.423,1.397-2.46-.33-1.02-1.384-1.708-2.46-1.397-2.904.84-5.322,3.044-5.407,6.219-.082,3.025,1.936,6,4.989,6.561,1.513.278,3.042-.146,4.49-.567,1.093-.318,2.247-.61,3.218-1.228,1.362-.868,2.177-2.184,2.322-3.792.118-1.313-.341-2.689-1.017-3.798-.732-1.2-1.814-2.36-3.082-3-1.711-.864-3.686-.877-5.512-.394-1.011.268-1.727,1.439-1.397,2.46.336,1.04,1.376,1.684,2.46,1.397Z"></path><path class="g" d="M312.39,101.825c-.746-6.001.273-12.432,5.859-15.757,6.166-3.67,15.075-2.844,19.277,3.439,1.164,1.741,1.933,3.691,2.402,5.727.485,2.106.248,3.947-.074,6.058-.163,1.067.269,2.15,1.397,2.46.946.26,2.297-.323,2.46-1.397.359-2.357.715-4.519.327-6.896-.358-2.194-1.084-4.341-2.095-6.32-1.991-3.899-5.556-6.951-9.706-8.329-7.772-2.58-17.417.189-21.66,7.447-2.387,4.084-2.76,8.96-2.187,13.566.133,1.072.824,2,2,2,.977,0,2.134-.921,2-2h0Z"></path><path class="g" d="M339.291,103.315c.104-.028.213-.043.316-.072-.496.141-.315.036-.102.032.098-.002.234.035.324.012-.102.027-.507-.089-.157-.014.106.023.211.051.314.085.328.107-.045.016-.124-.063.066.066.204.102.288.152.164.099.303.29-.05-.064.076.077.164.142.241.219l.075.079c.134.157.098.107-.108-.15.02.076.108.163.147.232.22.388-.06-.231,0-.045.052.162.079.521.173.644-.037-.309-.048-.385-.033-.227.006.061.01.123.012.185.005.124.004.249-.002.373l-.008.125c-.022.219-.013.166.026-.159-.047.052-.047.241-.062.308-.029.123-.063.243-.102.363-.116.354-.052-.008.045-.067-.064.039-.122.258-.165.336-.06.109-.124.215-.192.319-.034.052-.07.104-.106.155-.087.121-.046.07.124-.153-.027-.006-.228.271-.247.291-.158.175-.326.341-.501.498-.016.015-.231.22-.246.209.236-.179.269-.204.097-.077l-.105.074c-.21.146-.428.28-.654.401-.111.06-.225.112-.338.169-.346.174.407-.158.02-.012-.499.188-.917.444-1.195.919-.251.429-.357,1.061-.202,1.541.309.954,1.412,1.792,2.46,1.397,2.883-1.088,5.387-3.633,5.355-6.886-.017-1.722-.775-3.263-2.17-4.27-1.192-.861-2.802-1.098-4.21-.716-1.009.274-1.729,1.435-1.397,2.46.335,1.034,1.378,1.691,2.46,1.397h0Z"></path><path class="g" d="M314.346,99.503c-1.389-.424-3.023-.192-4.224.633-1.427.979-2.179,2.516-2.249,4.231-.068,1.652.594,3.169,1.604,4.436.947,1.187,2.206,1.996,3.594,2.57.446.184,1.146.03,1.541-.202.415-.243.811-.718.919-1.195.117-.512.091-1.087-.202-1.541-.301-.467-.686-.709-1.195-.919.546.226.132.051.027-.002-.113-.056-.223-.116-.332-.179-.204-.118-.394-.253-.589-.383-.12-.088-.07-.049.149.117-.051-.04-.1-.081-.149-.123-.082-.07-.163-.141-.241-.214-.189-.176-.361-.365-.532-.558-.294-.329.242.369,0,.004-.069-.105-.142-.207-.208-.314-.054-.088-.105-.178-.153-.27-.211-.401.057.202-.004.023-.075-.219-.15-.434-.199-.661-.045-.205.012-.441-.009.036.005-.12-.021-.253-.023-.374-.002-.125.008-.248.01-.373.005-.363-.076.344-.017.104.034-.139.201-.508.181-.643-.127.291-.144.34-.051.149l.058-.105c.104-.178.281-.281-.062.044.078-.074.144-.164.222-.239l.08-.074c.158-.133.108-.096-.15.11.076-.021.16-.106.228-.146.07-.041.436-.2.101-.068-.326.129-.01.01.066-.013.104-.032.21-.052.315-.08.373-.101-.488.022-.102.016.109-.002.215-.003.324-.002.362.003-.477-.12-.104-.019.104.028.21.051.313.082,1.001.306,2.225-.364,2.46-1.397.246-1.081-.325-2.133-1.397-2.46h0Z"></path><path class="g" d="M336.665,108.92c-1.591,4.635-5.433,7.57-10.345,7.568s-8.817-2.844-10.452-7.47c-.852-2.41-4.718-1.372-3.857,1.063,1.089,3.08,2.916,5.788,5.551,7.75,2.511,1.87,5.656,2.645,8.758,2.656,3.156.011,6.26-.825,8.783-2.749,2.579-1.967,4.373-4.707,5.419-7.755.838-2.44-3.025-3.488-3.857-1.063h0Z"></path><path class="g" d="M329.213,104.427c-.016-.12-.172-1.316.665-2.161.549-.554,1.201-.591,1.407-.6.158-.006,1.192-.029,1.843.864.617.846.68,2.227-.058,3.155-.766.963-2.013,1.016-2.831.462-.737-.499-.93-1.114-1.026-1.719Z"></path><path class="g" d="M319.199,104.427c-.016-.12-.172-1.316.665-2.161.549-.554,1.201-.591,1.407-.6.158-.006,1.192-.029,1.843.864.617.846.68,2.227-.058,3.155-.766.963-2.013,1.016-2.831.462-.737-.499-.93-1.114-1.026-1.719Z"></path><path class="g" d="M329.502,90.256c-2.336,2.19-5.278,3.984-8.253,5.633-1.495.829-3.02,1.608-4.581,2.305-.185.082-.37.164-.556.243.253-.108-.039.016-.145.059-.304.122-.608.243-.916.355-.547.2-1.102.38-1.669.513-2.506.586-1.445,4.444,1.063,3.857,3.086-.722,6.07-2.353,8.821-3.878,3.19-1.768,6.391-3.754,9.062-6.259,1.882-1.764-.951-4.589-2.828-2.828h0Z"></path><path class="g" d="M339.769,99.659c-.431-.25-.846-.524-1.249-.817-.099-.072-.281-.172-.359-.267.153.187.173.136-.017-.017-.223-.179-.443-.363-.659-.551-.431-.375-.849-.768-1.247-1.178-.19-.196-.375-.396-.554-.602-.078-.09-.155-.18-.231-.272-.075-.091-.394-.401-.023-.023-.422-.429-.75-1.041-1.074-1.547-.271-.424-.526-.859-.756-1.307-.092-.179-.18-.36-.263-.543-.062-.136-.158-.492.019.057-.028-.088-.07-.173-.104-.259-.152-.392-.284-.792-.407-1.194-.306-.999-1.412-1.736-2.46-1.397-1.007.326-1.725,1.389-1.397,2.46,1.387,4.533,4.666,8.534,8.762,10.911.905.525,2.231.239,2.736-.718s.249-2.175-.718-2.736h0Z"></path><path class="g" d="M356.457,113.503c-1.738-.812-3.592-1.238-5.503-.863-1.325.26-2.542,1.052-3.551,1.917-2.19,1.879-3.631,5.279-1.852,7.913.791,1.171,1.982,1.941,3.225,2.562,1.269.634,2.56,1.337,3.933,1.717,3.52.973,6.763-1.388,7.868-4.666,1.205-3.578-.925-6.992-4.121-8.579-.936-.465-2.209-.281-2.736.718-.478.904-.283,2.239.718,2.736.453.225.897.479,1.298.788-.321-.247.193.19.26.255.084.082.166.166.245.252.05.055.334.474.13.143.124.202.253.396.365.605.181.335.038.092.011.012.038.115.078.228.109.344-.001-.005.112.564.064.241-.04-.269,0,.088.003.154.004.114.004.228,0,.342-.002.086-.008.172-.016.258.033-.215.037-.249.011-.101-.058.229-.099.457-.171.684-.03.093-.172.459-.02.104-.047.109-.101.217-.155.322-.11.212-.236.413-.368.611-.214.32-.065.077-.011.017-.119.131-.233.262-.361.384-.081.078-.169.163-.26.232.206-.156-.07.032-.096.046.031-.016-.532.266-.274.157.21-.088-.148.042-.197.057-.118.034-.24.051-.357.085-.299.087.435.007-.113.009-.122,0-.262,0-.381.012-.354.034.268.082.024.017-.251-.066-.501-.119-.748-.201-.106-.035-.713-.267-.426-.148-.532-.22-1.045-.485-1.56-.741-.398-.197-.799-.387-1.189-.598-.182-.099-.363-.201-.539-.31-.088-.055-.176-.111-.262-.169-.108-.073-.387-.368-.09-.058-.14-.145-.296-.276-.437-.422-.247-.257.002-.011.036.05-.047-.083-.102-.176-.155-.257-.224-.346-.004.211-.002-.014,0-.089-.045-.218-.074-.304-.078-.228-.062.289.02.074.019-.049-.004-.588-.011-.267-.006.28.006-.031.028-.112.034-.124.073-.249.104-.374.023-.095.151-.339-.029.038.046-.096.091-.193.141-.287.102-.192.221-.373.337-.556.196-.307.033-.055-.017.007.105-.129.214-.255.327-.377.19-.204.394-.39.601-.576.273-.247.044-.044-.019.003.13-.097.263-.19.399-.279.22-.144.453-.259.68-.39.091-.052.351-.137-.069.018.134-.05.266-.101.403-.142.087-.026.175-.05.263-.071.094-.022.46-.034.106-.023.301-.01.594-.017.895.007.366.029-.441-.116.187.029.173.04.346.076.517.123.388.106.667.213.845.296.946.442,2.2.297,2.736-.718.468-.885.294-2.264-.718-2.736Z"></path><path class="g" d="M334.673,122.067c2.556.997,5.191,1.865,7.63,3.127,1.876.97,3.843,2.089,5.03,3.893,1.284,1.951,2.062,4.278,2.861,6.457.851,2.322,1.645,4.7,2.236,7.103.505,2.056.873,4.654-.258,6.583-1.451,2.474-4.524,2.321-7,2.321-2.574,0-2.578,4,0,4,2.636,0,5.205-.025,7.552-1.437,3.863-2.324,4.586-6.838,3.889-10.983-.743-4.42-2.519-8.805-4.252-12.915-.781-1.853-1.681-3.635-3.105-5.088-1.484-1.514-3.438-2.647-5.321-3.588-2.637-1.317-5.453-2.262-8.197-3.332-1.007-.393-2.195.432-2.46,1.397-.311,1.132.387,2.066,1.397,2.46h0Z"></path><path class="g" d="M317.663,118.21c-5.91,2.305-12.929,4.259-15.917,10.409-1.953,4.019-3.473,8.418-4.577,12.745-1.008,3.952-1.159,8.965,2.258,11.843,2.575,2.169,5.607,2.345,8.801,2.345,2.574,0,2.578-4,0-4-2.476,0-5.549.153-7-2.321-1.132-1.929-.764-4.527-.258-6.583.59-2.403,1.385-4.781,2.236-7.103.799-2.179,1.577-4.506,2.861-6.457,1.187-1.804,3.154-2.923,5.03-3.893,2.44-1.262,5.074-2.129,7.63-3.127,1.006-.392,1.704-1.342,1.397-2.46-.264-.96-1.448-1.792-2.46-1.397h0Z"></path></g></g></svg>