<svg id="b" xmlns="http://www.w3.org/2000/svg" width="409.918" height="335.91" viewBox="0 0 409.918 335.91"><defs><style>.h{fill:#211715;}.i{fill:#fff;}.j{fill:none;}.k{fill:#fcdc4a;}</style></defs><g id="c"><g id="d"><path class="i" d="M177.994,29.692c-39.123-8.834-45.504,22.456-45.504,22.456-.787-.986-2.09-1.615-3.403-1.634-1.312-.019-2.606.561-3.365,1.517-.536.67-1.254,2.065-1.465,2.873-.812,3.187-.848,4.87.133,8.057.477,1.553,1.758,4.221,2.88,5.479.863.956,2.509,2.537,3.463,3.118l1.854,1.429s.091.07.177.137c.2.509.427,1.04.675,1.583-.916,1.522-2.471,2.937-3.893,4.499-.492,9.02,8.049,26.625,19.264,27.448,0,0,.367.101.664.183,5.348-3.476,7.154-3.892,9.969-8.092l.67-1.245c9.965,2.275,20.851-1.148,28.158-8.467,8.138-8.151,11.801-21.267,12.575-31.342,0,0,4.704-21.778-22.852-28Z"></path><path class="i" d="M253.927,195.571c-2.764-.606-5.569.369-8.34,1.554-3.514,3.298-5.66-4.971-11.037-5.538-5.004-1.295-36.542-9.031-41.592-12.943,0,0-1.245-.965-3.131-2.422,1.273,1.143,2.353,1.993,3.131,2.422-4.742-2.616-20.676-20.873-23.581-25.717,0,0-.585-.976-1.59-2.644,5.482-3.328,14.585-10.222,17.075-12.413,2.336-2.054,4.348-3.426,5.693-4.836.588.949.959,1.547.959,1.547,3.204,5.154,15.336,21.148,19.24,25.568,4.8,3.002,11.321,6.391,16.685,8.794,4.748,2.128,7.272,3.191,10.319,4.236,2.542.917,5.903,1.917,8.792,2.181l1.604.097c-.116.781-.135,1.541-.085,2.278.327,4.855,3.418,14.697,6.057,17.89"></path><path class="i" d="M310.15,146.939s-.007-.018-.016-.042c-2.96.199-6.129.708-9.574,1.604-2.893.724-5.932,1.847-9.115,3.441-5.562,2.273-13.274,5.445-18.222,1.629-.979-.755-2.137-1.294-3.373-1.29-3.269.011-3.451,2.906-4.377,5.066-.389.908-.917,1.691-1.546,2.384-.359.396-.752.762-1.171,1.105-2.9,1.476-9.193,5.289-11.925,8.764-2.32,2.952-2.928,5.668-2.762,8.134.327,4.855,3.418,14.697,6.057,17.89-5.544-1.375-11.263,3.756-16.547,4.294-3.065.312-5.655.005-8.399-.381,1.5.544,3.138,1.17,4.984,1.898,11.072,4.36,21.83,9.518,32.162,15.421.612.35,1.223.702,1.832,1.057,3.751,2.186,7.64,4.381,11.294,6.859.709-7.889,4.173-16.707,7.233-19.021,3.792,1.31,8.015,1.375,11.659-.157,2.199-.924,3.977-2.724,4.226-5.096.165-1.569-.414-3.331-1.461-4.502-.98-1.097-1.945-1.746-3.334-2.053-.32-.56-.341-1.175-.505-1.864-.317-1.328.338-2.701,1.572-3.285,4.944-2.344,9.171-7.048,11.265-10.989,1.507-2.836,1.916-5.178,2.121-8.824,0,0,2.076-15.933-2.077-22.042Z"></path><path class="i" d="M386.428,311.653c-3.933,0-336.652.164-381.026.164l.444-51.767c9.549,0,376.648.12,380.582.12v51.483Z"></path><path class="i" d="M125.883,200.248c-5.27,0-47.453,3.36-62.36,3.19-.093-3.555-.031-6.909.225-9.844.981-11.243,3.204-22.398,6.03-33.324,2.831-10.942,5.448-22.303,9.147-33.076.151-.44.304-.879.459-1.317,3.361-9.511,10.653-18.599,17.993-25.099,4.364-3.865,9.294-7.768,13.842-11.451,5.093-4.124,12.031-6.641,18.359-10.557-.808,8.866,7.83,27.048,19.231,27.884l.665.183c5.347-3.477,7.153-3.893,9.968-8.093l17.359-1.441c1.579,4.423,4.324,7.506,6.634,11.056,3.136,4.82,5.198,10.343,7.558,15.633,3.513,7.876-.301,8.747-6.132,13.876-3.04,2.674-15.928,12.354-20.064,14.006-.792.316-1.686.058-2.195-.627-.907-1.221-1.921-3.068-2.843-4.837,0,0-.128-.246-.364-.702-2.915,6.277-5.883,12.948-7.75,16.68-2.963,7.852-2.222,13.778-4.593,24.444l-21.171,13.414Z"></path><path class="i" d="M7.438,256.915c-1.23,1.468-2.461,2.952-3.74,4.481-1.216,1.454-2.358,3.703-1.259,5.852,1.18,2.308,3.799,1.813,5.355.564.083.39.139.644.139.644.951,4.348,6.062,2.94,7.766.654,0,0,.368-.494.737-.989l.387,1.236c1.762,5.631,7.883,1.142,10.278-.736,2.518-1.974,6.921-4.194,10.161-3.307,3.695,1.012,6.027,4.117,9.975,4.486,2.077.194,4.172-.272,6.04-1.155,1.616-.764,2.875-2.009,4.511-2.57,1.708-.586,3.29-.746,5.697-.978h5.97c-.631-6.218-1.213-14.801-1.522-20.962l-.376.023c-4.135.253-9.559,1.128-13.694,1.382-3.282.201-6.257-1.152-9.467-1.699-1.953-.333-4.549-.507-6.987-.538-4.785-.06-10.088.034-14.801.883-4.327.78-6.717,3.072-9.574,6.249-1.964,2.185-3.778,4.315-5.594,6.482Z"></path><path class="i" d="M386.812,333.841c0-18.924-.217-117.432-.228-138.949,0-.856.693-1.541,1.549-1.541h18.002c.855,0,1.547.685,1.548,1.539.025,21.215.235,121.303.235,139.088l-21.106-.137Z"></path><path class="i" d="M108.843,164.295c6.236-2.908,12.397-6.205,17.901-9.121.122.167.192.255.192.255,2.233,2.843,5.996,9.353,8.529,13.268,2.211,3.415,9.127,15.052,13.553,21.402,2.029.247,30.391,14.784,42.623,16.554,4.032-1.982,12.347-3.486,16.798-3.738,2.944-.167,5.313,1.571,5.556,2.889.456,2.478-2.945,3.821-8.082,4.861,5.592,1.36,15.268,3.979,21.53,5.637,1.973.522,4.683,2.089,4.049,4.772-.379,1.604-1.436,2.308-2.803,2.506.382.351.604.557.604.557.933.865.957,2.62.449,4.033-.464,1.288-1.967,2.508-3.671,2.533.638.929.629,2.192.092,3.242-.609,1.192-2.505,3.234-5.213,2.611-.906-.157-2.125-.383-3.501-.654.125.491.21.828.21.828.391,1.441-1.737,3.596-3.817,3.815-5.076.533-12.378-2.028-15.739-3.329-3.768-1.458-7.326-4.501-10.138-7.122-1.775-1.655-4.823-4.135-6.887-5.447l-.269-.139c-3.198-1.658-10.016-3.53-13.646-4.742-7.959-2.659-27.412-8.58-31.698-11.581-7.791-6.829-11.077-9.205-17.69-17.374-2.383-2.944-15.141-18.638-17.374-22.271,0,0-.118-.191-.305-.495,2.893-1.111,5.829-2.387,8.748-3.749Z"></path><path class="i" d="M129.52,80.088c.08,9.242,8.432,25.77,19.29,26.567l1.036.285-.488.598c-3.248,2.185-9.498,6.882-13.283,7.851-3.08-.158-6.922-4.921-9.043-9.121-3.001-5.943-7.669-26.112,2.488-26.18"></path><path class="i" d="M159.443,98.746c-2.321,3.463-3.956,4.353-7.457,6.508,1.277,1.596,3.571,3.892,5.688,4.85,3.13,1.416,2.344,1.795,4.701-.621,2.505-2.567,3.827-9.571.067-10.514l-3-.222Z"></path><path class="i" d="M365.178,231.892c-1.827-5.274-5.743-9.625-13.705-10.284-9.698-.803-41.116,2.11-46.229,3.56-9.97,2.829-12.61,15.88-11.434,25.326.618,4.961,4.747,8.7,9.697,8.749,8.735.087,22.594-.181,35.481-.181,6.628,0,20.496-.845,23.545-2.378,6.039-3.038,6.421-13.896,2.646-24.792Z"></path><g id="e"><path class="k" d="M124.027,29.2c-3.012,8.381-3.058,18.523-.935,27.074l.393,1.584c.371-1.417.773-2.953.773-2.953.211-.808.929-2.203,1.465-2.873.759-.956,2.053-1.537,3.365-1.517s2.616.648,3.403,1.634l8.059.203c4.759-4.346,13.035-10.787,18.618-13.042.655-.264,1.41.257,1.558,1.321.144,1.029.066,1.791-.085,2.505-.229,1.084.755,1.987,1.708,1.575,3.997-1.726,11.167-5.289,16.153-6.829l7.009,1.578c2.185,1.221,3.828,2.348,6.126,4.761,4.348,4.566,8.312,10.79,9.284,15.883,6.39-16.516,2.608-34.447-8.706-44.267l1.026-1.06c-5-6.377-16.297-13.226-31.6-12.708-13.16.577-21.903,5.04-26.738,13.315-5.242,2.997-8.778,7.979-10.875,13.814Z" style="fill: rgb(121, 211, 241);"></path><path class="k" d="M268.157,217.912c-.609-.355-1.22-.707-1.832-1.057-10.332-5.903-21.09-11.062-32.162-15.421-12.074-4.754-15.309-5.259-28.315-5.881-9.915-.474-28.192.408-39.839,2.033,8.989,3.951,19.401,8.164,25.631,9.066,4.032-1.982,12.347-3.486,16.798-3.738,2.944-.167,5.313,1.571,5.556,2.889.456,2.479-2.945,3.821-8.083,4.861,5.592,1.36,15.268,3.979,21.53,5.637,1.973.522,4.683,2.089,4.049,4.772-.379,1.604-1.436,2.308-2.803,2.506.382.351.604.557.604.557.933.865.957,2.62.449,4.033-.464,1.288-1.967,2.508-3.671,2.533.638.929.629,2.192.092,3.242-.609,1.192-2.505,3.234-5.213,2.611-.906-.157-2.125-.383-3.501-.654.125.491.21.828.21.828.391,1.441-1.737,3.596-3.817,3.815-5.076.533-12.378-2.028-15.739-3.329-3.768-1.458-7.326-4.501-10.138-7.122-1.775-1.655-4.823-4.135-6.887-5.447-.165-.086-.269-.139-.269-.139-3.198-1.658-10.016-3.53-13.646-4.742-7.959-2.659-27.412-8.58-31.698-11.581-3.785-3.318-6.505-5.585-9.061-7.976l-1.687.103c-4.854,0-51.628,2.202-74.265,3.188-3.168.138-5.733,2.599-6.007,5.758-.896,10.35-.627,29.249.105,34.214,0,0,.032.157.084.414,3.12.569,6.027,1.85,9.227,1.654,4.345-.266,10.116-1.22,14.316-1.415.671,8.56,1.91,21.822,2.415,26.952.119,1.207,1.137,2.122,2.35,2.109,13.799-.147,90.267-2.07,102.286-2.67,22.573-1.127,77.958-2.774,93.073-13.127,7.745-5.305,7.477-12.518,9.806-20.453,1.559-3.08,6.963-5.996,7.548-7.376-5.172-4.646-11.511-8.158-17.497-11.646Z" style="fill: rgb(121, 211, 241);"></path><path class="k" d="M337.173,155.403c-.509-.394-1.029-.767-1.56-1.118-7.381-4.882-15.118-8.111-25.5-7.4.023.036.035.054.035.054,4.153,6.109,2.077,22.042,2.077,22.042-.205,3.647-.614,5.989-2.121,8.824-2.094,3.94-6.321,8.645-11.265,10.989-1.233.585-1.888,1.958-1.572,3.285.164.688.185,1.304.505,1.864,1.389.306,2.354.955,3.334,2.053,1.047,1.172,1.625,2.933,1.461,4.502-.249,2.372-2.027,4.172-4.226,5.096-3.644,1.532-7.868,1.467-11.659.157-3.06,2.314-6.524,11.132-7.233,19.021,2.169,1.471,4.255,3.041,6.18,4.768.007,0,.016,0,.023,0,2.78.017,5.886,1.826,10.672,3.539,1.862-3.75,4.747-6.726,8.918-7.91,3.615-1.026,20.377-2.781,33.317-3.438,4.277-4.157,7.446-9.229,8.761-15.081,10.007-11.678,4.459-39.948-10.149-51.247Z" style="fill: rgb(121, 211, 241);"></path></g></g><g id="f"><path class="h" d="M228.678,201.475c4.161.572,8.467,1.043,12.52-.364,3.79-1.315,8.01-4.404,12.2-3.616,2.516.473,3.594-3.381,1.063-3.857-4.59-.863-8.573,1.252-12.68,2.98-1.912.805-3.764,1.335-5.843,1.41s-4.143-.128-6.197-.41c-1.069-.147-2.147.258-2.46,1.397-.257.934.32,2.312,1.397,2.46h0Z"></path><path class="h" d="M285.63,231.537c.143,0,.286.006.429.016.099.007.197.018.295.026.283.023-.108.005-.173-.025.306.141.774.146,1.107.234.821.216,1.621.508,2.412.816,2.035.793,4.033,1.672,6.089,2.413.986.355,2.233-.4,2.46-1.397.256-1.125-.341-2.08-1.397-2.46-2.104-.758-4.146-1.663-6.231-2.468-1.588-.613-3.269-1.154-4.99-1.154-1.046,0-2.048.92-2,2s.879,2,2,2h0Z"></path><path class="h" d="M301.092,150.425c8.115-2.077,16.429-2.343,24.339.685,6.112,2.34,11.916,6.12,15.909,11.356,4.088,5.36,6.717,11.796,8.093,18.365,1.256,5.995,1.505,12.492-.356,18.391-.437,1.384-.965,2.626-1.697,3.885-.353.607-.796,1.271-1.184,1.779-.695.911-.927,1.849-1.267,2.999-1.416,4.784-4.218,8.958-7.764,12.427-1.843,1.803.986,4.631,2.828,2.828,4.483-4.385,7.822-9.827,9.254-15.963l-.514.883c7.687-9.1,6.542-23.292,3.056-33.873-2.003-6.078-5.058-11.899-9.384-16.651-4.323-4.749-10.246-8.172-16.221-10.401-8.454-3.153-17.522-2.778-26.157-.568-2.492.638-1.436,4.497,1.063,3.857h0Z"></path><path class="h" d="M310.227,168.981c-.145,2.448-.423,4.907-1.507,7.143-1.065,2.197-2.516,4.179-4.192,5.947-1.8,1.899-3.847,3.546-6.182,4.741-1.267.648-2.265,1.454-2.801,2.814-.542,1.375-.272,2.683.016,4.084.519,2.52,4.375,1.453,3.857-1.063-.185-.898-.468-1.609.432-2.126,1.185-.68,2.365-1.281,3.472-2.094,2.155-1.581,4.089-3.417,5.752-5.51,1.524-1.918,2.826-3.956,3.739-6.236.982-2.451,1.258-5.083,1.413-7.7.153-2.571-3.848-2.562-4,0h0Z"></path><path class="h" d="M312.931,154.939c-.088.012-.432.047-.156.026.105-.008.209-.018.314-.024.189-.011.378-.016.567-.014.168.002.336.008.503.019.105.007.209.016.314.027.067.007.37.04.047.003-.344-.039.031.01.107.024.083.015.165.032.247.049.185.039.369.085.551.136s.363.107.542.169c.079.028.159.056.237.086.067.025.418.166.112.041-.285-.116-.008,0,.049.027.076.036.152.072.227.11.169.085.336.175.5.27s.324.195.481.3c.07.047.139.094.208.143.242.172.085.077-.051-.049.262.243.546.457.799.711.133.134.262.272.386.415.069.079.134.162.202.242.164.193-.3-.402-.046-.053.316.433.66.772,1.195.919.479.132,1.116.072,1.541-.202.835-.538,1.377-1.832.718-2.736-1.212-1.662-2.766-2.951-4.667-3.753-1.931-.815-3.921-1.026-5.99-.745-.459.062-.974.541-1.195.919-.251.429-.357,1.061-.202,1.541.157.484.457.951.919,1.195.51.269.976.278,1.541.202h0Z"></path><path class="h" d="M311.609,161.273c.945.435,1.85.951,2.699,1.551.116.082.23.166.344.25.394.287-.334-.275.044.033.183.149.366.298.545.453.411.356.805.731,1.18,1.124.36.377.692.775,1.025,1.174.158.19-.231-.313-.009-.012.084.114.169.228.251.343.151.212.297.427.438.645.282.436.544.886.785,1.346.12.23.235.463.345.699.05.107.103.295.174.388l-.091-.217c.036.087.071.175.106.263.385.969,1.355,1.755,2.46,1.397.939-.304,1.81-1.419,1.397-2.46-1.8-4.535-5.209-8.377-9.674-10.432-.948-.436-2.198-.301-2.736.718-.465.881-.297,2.269.718,2.736h0Z"></path><path class="h" d="M284.246,205.323c-2.028,2.433-3.324,5.388-4.373,8.353-1.267,3.582-2.067,7.32-2.423,11.102-.101,1.077.992,2,2,2,1.166,0,1.898-.92,2-2,.312-3.32,1.093-6.609,2.182-9.758.461-1.332.985-2.636,1.618-3.896.307-.609.635-1.209.996-1.788.153-.246.315-.487.479-.726.019-.028.239-.333.144-.208-.102.136.21-.257.205-.251.691-.829.813-2.016,0-2.828-.711-.711-2.134-.834-2.828,0h0Z"></path><path class="h" d="M300.028,146.572c-6.59,1.687-12.487,5.834-19.308,6.675-1.448.179-2.936.167-4.339-.261-1.495-.456-2.588-1.617-4.03-2.194-2.904-1.163-6.149-.231-7.531,2.666-1.081,2.265-1.391,4.736-3.811,6.038-2.526,1.359-4.96,2.919-7.237,4.663-2.586,1.98-5.025,4.24-6.424,7.245-1.292,2.774-1.471,5.548-1.02,8.533.472,3.121,1.35,6.201,2.408,9.171.985,2.764,2.105,5.563,3.935,7.885.669.849,2.128.7,2.828,0,.838-.838.671-1.977,0-2.828-.335-.426-1-1.632-1.37-2.39-.541-1.107-.999-2.247-1.419-3.404-.933-2.567-1.705-5.21-2.241-7.889-.464-2.316-.684-4.631.248-6.876,1.071-2.58,3.192-4.553,5.368-6.216,2.145-1.64,4.457-3.092,6.83-4.378,2.543-1.378,4.027-3.7,4.947-6.384.227-.663.459-1.663,1.019-2.092,1.009-.775,2.474.158,3.331.764,2.351,1.663,5.185,2.236,8.033,1.997,7.45-.626,13.729-5.043,20.845-6.865,2.492-.638,1.436-4.497-1.063-3.857h0Z"></path><path class="h" d="M296.938,195.812c2.144.426,4.01,2.349,3.631,4.686-.346,2.136-2.568,3.227-4.43,3.748-4.689,1.313-10.038-.03-13.758-3.118-.83-.689-2.015-.813-2.828,0-.71.71-.835,2.135,0,2.828,5.34,4.434,13.019,6.233,19.56,3.465,3.162-1.338,5.694-4.29,5.467-7.882-.231-3.672-2.963-6.865-6.58-7.585-1.058-.211-2.16.302-2.46,1.397-.27.984.332,2.248,1.397,2.46h0Z"></path><g id="g"><path class="h" d="M281.179,164.023c.021.025.042.051.061.077l-.313-.405c.195.26.342.55.469.849l-.202-.478c.272.662.442,1.361.541,2.069l-.071-.532c.074.556.106,1.121.038,1.679l.071-.532c-.03.217-.075.43-.156.634l.202-.478c-.033.077-.071.15-.116.22-.571.879-.207,2.248.718,2.736.996.526,2.127.221,2.736-.718.399-.614.515-1.381.568-2.094.052-.709-.047-1.421-.153-2.12-.206-1.355-.692-2.672-1.566-3.737-.306-.373-.952-.586-1.414-.586-.491,0-1.076.218-1.414.586-.35.381-.61.882-.586,1.414.025.559.232.983.586,1.414h0Z"></path><path class="h" d="M257.511,164.228c.563,1.893,1.445,3.65,2.693,5.179.649.795,1.485,1.576,2.424,2.012.499.232.992.353,1.541.202.464-.128.967-.486,1.195-.919.467-.883.296-2.266-.718-2.736-.29-.135-.557-.311-.811-.505l.405.313c-.508-.394-.95-.861-1.346-1.367l.313.405c-.623-.808-1.114-1.704-1.512-2.642l.202.478c-.202-.485-.38-.978-.53-1.482-.298-1.002-1.418-1.734-2.46-1.397-1.014.328-1.716,1.386-1.397,2.46h0Z"></path><path class="h" d="M267.874,174.563c-.02.053-.041.106-.063.159l.202-.478c-.158.368-.368.709-.61,1.027l.313-.405c-.326.421-.705.8-1.125,1.127l.405-.313c-.247.189-.507.361-.785.5-.233.126-.42.297-.561.515-.177.193-.296.42-.358.68-.083.266-.095.532-.036.798.012.266.091.514.237.744.275.427.685.803,1.195.919l.532.071c.361-.001.697-.092,1.009-.273.272-.136.526-.303.768-.487.399-.304.789-.607,1.135-.971s.658-.764.935-1.179c.283-.424.486-.894.664-1.37.083-.266.095-.532.036-.798-.012-.266-.091-.514-.237-.744-.126-.233-.297-.42-.515-.561-.193-.177-.42-.296-.68-.358-.512-.117-1.087-.091-1.541.202l-.405.313c-.248.25-.419.544-.514.883h0Z"></path></g><path class="h" d="M235.537,214.732c14.639,5.221,28.066,13.514,40.775,22.342,2.119,1.472,4.121-1.994,2.019-3.454-13.011-9.038-26.749-17.402-41.731-22.746-2.429-.866-3.475,2.997-1.063,3.857h0Z"></path><path class="h" d="M166.552,199.515c7.61-1.049,15.314-1.553,22.986-1.865,7.367-.3,14.707-.277,22.064.228,3.189.219,6.36.549,9.479,1.27,3.542.819,6.973,2.059,10.361,3.364,8.85,3.409,17.502,7.31,25.905,11.71,4.695,2.458,9.288,5.098,13.86,7.777,2.384,1.397,4.749,2.827,7.04,4.372,2.058,1.388,4.228,2.837,5.991,4.6l-.313-2.424c-.208.418.106-.036-.147.217-.209.208-.426.407-.649.6-.66.568-1.359,1.09-2.042,1.63-1.5,1.186-2.956,2.417-4.093,3.968s-1.413,3.623-1.833,5.457c-.431,1.879-.823,3.77-1.356,5.624-1.039,3.612-2.799,6.823-5.838,9.136-1.731,1.317-3.977,2.391-5.685,3.062-5.298,2.08-10.936,3.297-16.52,4.315-6.853,1.25-13.774,2.105-20.703,2.804-13.835,1.394-27.725,2.125-41.612,2.769-7.829.363-15.655.685-23.489.922-12.074.366-24.149.686-36.224.995-11.987.307-23.974.601-35.962.861-4.034.088-8.067.174-12.101.24-.649.011-1.299.021-1.948.029-.853.011-1.115.037-1.197-.807-.284-2.93-.558-5.861-.829-8.792-.631-6.841-1.269-13.684-1.749-20.537-.048-.689-.511-2.533.183-2.882.354-.178,1.685-.137,2.295-.184,2.273-.177,4.546-.343,6.82-.506,12.809-.918,25.623-1.76,38.429-2.709,5.254-.389,10.51-.78,15.756-1.276,6.057-.572,12.049-1.653,18.089-2.38,5.168-.622,10.344-1.168,15.514-1.767,1.073-.124,2-.83,2-2,0-.984-.92-2.125-2-2-9.911,1.15-19.795,2.321-29.672,3.735.761-.109-.263.03-.466.054-.402.047-.804.091-1.206.134-.963.102-1.927.195-2.892.284-2.49.23-4.983.434-7.476.632-13.12,1.041-26.255,1.905-39.384,2.821-4.96.346-9.92.683-14.876,1.086-1.687.137-3.257.349-4.368,1.8-1.084,1.415-.89,3.049-.777,4.707.217,3.188.486,6.372.759,9.555.578,6.745,1.198,13.487,1.85,20.225.195,2.012.879,3.825,2.954,4.559.9.319,1.848.254,2.785.241,1.64-.024,3.28-.053,4.92-.085,10.889-.208,21.777-.472,32.665-.74,13.011-.32,26.022-.658,39.033-1.028,8.217-.234,16.443-.41,24.654-.816,12.998-.642,26-1.178,38.976-2.201,14.094-1.111,28.5-2.386,42.196-6.064,4.975-1.336,10.086-3.029,14.16-6.284,3.245-2.592,5.326-6.131,6.559-10.057.573-1.825.979-3.698,1.399-5.562.372-1.65.538-3.945,1.593-5.306,1.09-1.406,2.608-2.508,3.997-3.598,1.028-.806,2.366-1.656,2.966-2.864.399-.803.345-1.766-.313-2.424-3.309-3.309-7.62-5.87-11.603-8.27-4.212-2.537-8.48-5-12.801-7.347-8.564-4.652-17.406-8.783-26.45-12.413-6.993-2.807-13.884-5.228-21.419-5.973-7.424-.734-14.901-.823-22.352-.593-9.003.277-18.024.883-26.95,2.112-1.071.148-1.656,1.517-1.397,2.46.317,1.154,1.386,1.545,2.46,1.397h0Z"></path><path class="h" d="M46.478,242.939c-.068-.476.052.481-.004-.041-.012-.108-.026-.215-.036-.323-.03-.303-.061-.606-.087-.91-.071-.82-.123-1.642-.169-2.463-.11-1.974-.175-3.951-.222-5.928-.113-4.766-.114-9.537.002-14.303.055-2.27.138-4.54.273-6.807.119-1.992.017-4.19,1.662-5.616,1.414-1.226,3.248-1.078,5.001-1.155,1.886-.083,3.772-.167,5.657-.251,17.15-.767,34.298-1.569,51.45-2.303,5.283-.226,10.588-.581,15.878-.589,2.574-.004,2.578-4.004,0-4-4.597.007-9.207.307-13.799.501-8.59.363-17.18.75-25.769,1.138-9.063.409-18.126.823-27.189,1.228-1.949.087-3.898.174-5.847.26-2.21.097-4.433.038-6.451,1.089-2.233,1.163-3.873,3.43-4.273,5.913-.352,2.183-.373,4.458-.465,6.663-.234,5.582-.263,11.175-.161,16.76.074,4.06.115,8.176.692,12.202.153,1.07,1.513,1.657,2.46,1.397,1.15-.316,1.551-1.387,1.397-2.46h0Z"></path><path class="h" d="M264.55,262.05c5.122,0,10.243.007,15.365.012,9.626.009,19.253.019,28.879.029,11.112.011,22.225.023,33.337.035,9.579.01,19.159.02,28.738.03,5.025.005,10.058.095,15.082.015.159-.003.318,0,.476,0,2.574,0,2.578-4,0-4-4.24,0-8.48-.008-12.719-.012-9.172-.009-18.344-.019-27.516-.029-11.085-.012-22.171-.023-33.256-.035-9.98-.01-19.96-.02-29.94-.03-5.855-.006-11.711-.012-17.566-.015-.293,0-.587,0-.88,0-2.574,0-2.578,4,0,4h0Z"></path><path class="h" d="M5.402,313.817c6.897,0,13.794-.002,20.69-.004,11.251-.003,22.502-.008,33.754-.012,14.454-.006,28.908-.012,43.363-.018,16.439-.007,32.878-.014,49.316-.021,17.405-.008,34.809-.016,52.214-.024,17.158-.008,34.316-.016,51.474-.024,15.703-.007,31.405-.015,47.108-.022,13.223-.006,26.445-.013,39.668-.019,9.526-.005,19.053-.009,28.579-.013,4.679-.002,9.357-.005,14.036-.006.274,0,.549,0,.823,0,2.574,0,2.578-4,0-4-3.331,0-6.663.003-9.994.004-8.458.004-16.916.008-25.374.012-12.433.006-24.866.012-37.3.018-15.193.007-30.387.014-45.58.021-16.925.008-33.85.016-50.775.024-17.451.008-34.901.016-52.352.024-16.762.008-33.524.015-50.285.022-15.057.006-30.113.013-45.17.019-12.133.005-24.265.009-36.398.013-8.057.003-16.114.005-24.171.006-1.209,0-2.418,0-3.626,0-2.574,0-2.578,4,0,4h0Z"></path><path class="h" d="M388.812,333.841c0-7.246-.014-14.492-.026-21.737-.019-11.5-.04-23.001-.061-34.501-.023-12.627-.047-25.253-.071-37.88-.02-10.625-.039-21.249-.055-31.874-.005-3.595-.011-7.19-.014-10.785,0-.572.156-1.403-.001-1.951-.137-.475-.214.363-.396.238.083.057.405,0,.504,0h16.198c.089,0,1.188.08,1.226,0-.108.229-.498-.412-.434-.461-.033.025.003.386,0,.434-.019.307,0,.622.001.93,0,.7.002,1.399.003,2.099.002,1.696.005,3.393.008,5.089.016,9.814.034,19.627.053,29.441.023,12.387.047,24.774.07,37.16.022,11.882.044,23.765.064,35.647.014,8.3.028,16.601.035,24.901,0,1.129.002,2.258.002,3.387,0,2.574,4,2.578,4,0,0-7.154-.014-14.308-.026-21.462-.018-11.593-.039-23.187-.061-34.78-.023-12.723-.047-25.446-.071-38.169-.02-10.699-.04-21.398-.059-32.097-.006-3.553-.012-7.105-.017-10.658,0-.62.029-1.25-.002-1.869-.104-2.034-1.527-3.483-3.566-3.592-1.373-.074-2.77,0-4.144,0-4.47,0-8.943-.05-13.413,0-1.037.012-2.029.198-2.822.942-1.046.983-1.154,2.233-1.153,3.574.001,1.517.003,3.035.004,4.552.011,9.539.029,19.078.046,28.617.023,12.602.046,25.205.07,37.807.023,12.307.046,24.614.067,36.921.015,8.801.031,17.602.038,26.404,0,1.224.002,2.449.002,3.673,0,2.574,4,2.578,4,0h0Z"></path><path class="h" d="M190.526,204.431c-6.497-1.371-12.767-3.994-18.863-6.565-5.845-2.465-11.594-5.144-17.377-7.748-1.461-.658-3.134-1.708-4.737-1.948l1.195.919c-6.057-8.718-11.456-17.942-17.027-26.977-1.699-2.756-3.382-5.536-5.368-8.097-.663-.854-2.132-.696-2.828,0-.843.843-.664,1.972,0,2.828,1.992,2.569,3.707,5.606,5.442,8.423,1.455,2.363,2.957,4.697,4.416,7.057,3.503,5.666,6.934,11.383,10.64,16.92.741,1.107,1.357,2.375,2.663,2.828.415.144.823.296,1.23.461.248.101-.361-.158.143.061.163.071.327.141.49.213.399.174.796.351,1.193.529.974.436,1.945.878,2.916,1.32,5.38,2.451,10.763,4.894,16.215,7.182,6.014,2.524,12.189,5.101,18.594,6.452,2.511.53,3.585-3.325,1.063-3.857h0Z"></path><path class="h" d="M181.893,223.077c-3.58-1.822-7.496-3.025-11.299-4.283-2.935-.97-5.872-1.935-8.813-2.886-6.856-2.218-13.764-4.377-20.451-7.075-1.112-.449-2.245-.933-3.361-1.506-1.291-.663-2.264-1.585-3.361-2.537-3.004-2.604-6.047-5.173-8.854-7.993-4.372-4.392-8.162-9.352-12.036-14.18-2.369-2.953-4.728-5.914-7.049-8.904-1.56-2.011-3.196-4.019-4.541-6.184-1.356-2.182-4.818-.176-3.454,2.019,1.199,1.929,2.644,3.722,4.027,5.519,2.104,2.733,4.242,5.44,6.393,8.135,3.822,4.789,7.574,9.711,11.725,14.222,2.615,2.841,5.466,5.429,8.378,7.959,2.566,2.228,4.917,4.589,8.031,6.013,6.477,2.962,13.369,5.077,20.13,7.279,3.354,1.092,6.711,2.172,10.06,3.279,4.168,1.378,8.532,2.579,12.457,4.576,2.289,1.165,4.316-2.285,2.019-3.454h0Z"></path><path class="h" d="M63.483,263.096c-1.912.186-3.87.334-5.719.887-1.934.578-3.378,1.83-5.132,2.75-1.661.871-3.74,1.345-5.61,1.033-1.649-.275-3.062-1.198-4.455-2.066-1.495-.931-3.056-1.865-4.776-2.316-1.804-.473-3.733-.268-5.498.268-3.166.961-5.577,2.923-8.023,4.578-1.122.759-2.344,1.535-3.691,1.809-.339.069-.814.1-1.075-.039s-.583-.673-.755-1.177c-.825-2.423-4.69-1.383-3.857,1.063,1.129,3.319,3.96,4.921,7.362,3.845,2.739-.867,4.758-2.743,7.106-4.278,1.592-1.042,3.386-1.957,5.284-2.262,1.748-.281,3.224.364,4.705,1.23,1.617.946,3.139,2.002,4.893,2.693,1.972.776,4.111.868,6.186.517,2.507-.424,4.491-1.631,6.606-2.946,1.944-1.209,4.221-1.374,6.45-1.59,1.075-.104,2-.845,2-2,0-1.001-.918-2.105-2-2h0Z"></path><path class="h" d="M67.554,242.157c-3.721.242-7.411.802-11.12,1.169-1.854.183-3.683.362-5.527,0-1.867-.366-3.677-.977-5.546-1.336-3.85-.739-7.831-.741-11.737-.694-3.973.047-8.039.221-11.939,1.035-3.182.664-5.879,2.405-8.164,4.667-2.736,2.707-5.182,5.738-7.651,8.686C3.563,258.44-.026,261.537,0,265.432c.023,3.507,2.953,6.054,6.398,5.258,3.117-.721,4.889-3.934,6.803-6.217,2.175-2.594,4.378-5.169,6.66-7.67,1.732-1.899-1.089-4.735-2.828-2.828-1.775,1.946-3.497,3.94-5.203,5.946-.88,1.034-1.754,2.073-2.618,3.119-.783.949-1.611,2.166-2.393,2.954-.481.484-1.29,1.016-1.99.866-.841-.18-.927-1.494-.699-2.266.414-1.403,1.583-2.5,2.495-3.595,1.278-1.533,2.554-3.068,3.846-4.589,2.082-2.452,4.142-5.003,6.51-7.188,2.164-1.996,4.564-2.897,7.455-3.321,3.408-.499,6.876-.601,10.316-.612,3.463-.011,7.017-.027,10.412.743,1.851.42,3.659,1.01,5.538,1.302,1.868.29,3.657.194,5.527.013,3.779-.365,7.536-.943,11.326-1.189,2.556-.166,2.574-4.167,0-4h0Z"></path><path class="h" d="M6.003,268.987c.459,1.929,1.765,3.557,3.721,4.091,1.739.475,3.621.053,5.184-.769.693-.364,1.37-.859,1.904-1.431.707-.756,1.476-1.688,2.314-2.633,1.775-2.001,3.589-3.973,5.648-5.688.831-.692.715-2.114,0-2.828-.822-.822-1.996-.693-2.828,0-1.727,1.438-3.284,3.057-4.788,4.725-.772.856-1.531,1.725-2.296,2.588-.192.217-.394.429-.579.652-.361.472-.416.541-.164.205l-.089.101c-.101.088-.197.195-.291.292-.069.064-.14.126-.213.186.199-.148.238-.179.119-.092-.245.171-.492.33-.757.469-.052.028-.511.241-.24.125s-.201.069-.258.088c-.144.047-.289.089-.436.125-.061.015-.567.117-.248.064.314-.052-.181.013-.248.015-.145.006-.29-.003-.435-.002-.437,0,.076.058-.032-.001-.085-.047-.308-.107-.406-.11-.141-.05-.09-.026.154.072-.064-.029-.126-.061-.186-.097-.054-.037-.43-.318-.206-.123.23.199-.126-.152-.167-.197-.093-.108-.067-.074.078.101-.046-.066-.088-.134-.127-.204-.043-.071-.082-.144-.118-.219.072.188.082.212.031.074-.077-.211-.134-.425-.186-.643-.25-1.051-1.445-1.676-2.46-1.397-1.074.295-1.648,1.406-1.397,2.46h0Z"></path><path class="h" d="M24.028,252.909c.283.152.55.327.804.523l-.405-.313c1.171.921,1.987,2.19,2.935,3.32.312.372.946.586,1.414.586.491,0,1.076-.218,1.414-.586.35-.381.61-.882.586-1.414l-.071-.532c-.095-.339-.266-.633-.514-.883-.59-.704-1.126-1.453-1.728-2.147-.684-.788-1.492-1.514-2.415-2.009-.468-.251-1.022-.345-1.541-.202-.464.128-.967.486-1.195.919-.245.464-.368,1.026-.202,1.541.157.486.457.947.919,1.195h0Z"></path><path class="h" d="M42.899,204.612c-8.52.313-17.058.687-25.561,1.321-2.551.19-2.572,4.192,0,4,8.503-.634,17.041-1.009,25.561-1.321,2.566-.094,2.579-4.095,0-4h0Z"></path><path class="h" d="M192.559,208.419c2.111-1.032,4.509-1.612,6.807-2.13,2.535-.571,5.109-1.025,7.697-1.269,1.227-.116,2.472-.246,3.641.242.4.167.795.398,1.106.701.249.242.091.076.256.318-.08-.117.004-.025-.035.016-.006.006-.01.028-.022.041-.014.015-.012.017-.157.158-.231.225-.597.442-.997.647-1.256.643-2.697.966-4.06,1.287-2.505.59-1.444,4.448,1.063,3.857,2.827-.666,7.186-1.7,8.039-4.995.954-3.684-3.077-5.983-6.162-6.328-1.489-.167-3.032.074-4.51.263-1.773.228-3.537.508-5.29.858-3.203.64-6.448,1.439-9.396,2.879-2.312,1.13-.287,4.581,2.019,3.454h0Z"></path><path class="h" d="M205.317,212.576c7.123,1.736,14.204,3.662,21.282,5.571.982.265,2.628.734,2.946,1.865.355,1.267-.857,1.631-1.825,1.628-1.356-.005-2.706-.391-4.023-.68-1.554-.342-3.106-.697-4.656-1.059-3.261-.762-6.538-1.513-9.753-2.456-2.475-.726-3.532,3.133-1.063,3.857,3.324.975,6.712,1.748,10.085,2.533,1.704.397,3.41.786,5.12,1.155,1.802.389,3.637.811,5.486.559,4.463-.608,6.241-6.138,2.832-9.188-1.494-1.337-3.327-1.869-5.218-2.372-2.115-.562-4.229-1.127-6.343-1.69-4.594-1.223-9.187-2.454-13.806-3.58-2.5-.609-3.567,3.247-1.063,3.857h0Z"></path><path class="h" d="M224.259,231.577c1.033,1.534-1.084,3.233-2.621,3.083-1.802-.176-3.637-.675-5.409-1.039-2.22-.455-4.435-.937-6.634-1.482-.97-.241-1.938-.492-2.896-.778-.357-.106-.712-.217-1.065-.337-.165-.056-.327-.12-.492-.176-.502-.17.191.095-.126-.049-.983-.446-2.152-.281-2.736.718-.502.858-.271,2.287.718,2.736,2.015.915,4.202,1.426,6.345,1.941,2.637.633,5.292,1.192,7.953,1.71s5.452,1.354,7.94-.172c2.709-1.662,4.426-5.279,2.478-8.174-1.43-2.124-4.897-.125-3.454,2.019h0Z"></path><path class="h" d="M179.207,225.864c5.688,3.127,9.656,8.596,15.29,11.825,2.57,1.472,5.494,2.42,8.324,3.26,3.166.941,6.53,1.726,9.852,1.664,3.423-.063,7.616-2.44,6.914-6.415-.188-1.064-1.489-1.664-2.46-1.397-1.123.309-1.585,1.393-1.397,2.46-.097-.547-.033-.117-.264.21-.182.258-.473.469-.73.643-.585.397-1.201.474-1.892.495-1.661.05-3.311-.168-4.936-.498-3.15-.641-6.298-1.607-9.274-2.824-6.792-2.778-11.048-9.381-17.409-12.877-2.257-1.241-4.278,2.212-2.019,3.454h0Z"></path><path class="h" d="M206.194,228.241c4.778,1.497,9.801,2.363,14.692,3.407,2.636.562,5.536,1.707,8.067.262,3.1-1.77,4.298-6.447,1.754-9.188-1.755-1.891-4.578.942-2.828,2.828.534.576.106,1.938-.34,2.438-.356.4-.845.635-1.368.721.364-.06.058,0-.164-.054-.201-.048-.406-.087-.609-.13-2.104-.449-4.208-.894-6.311-1.348-3.942-.851-7.976-1.585-11.829-2.793-2.462-.772-3.515,3.089-1.063,3.857h0Z"></path><path class="h" d="M127.658,77.596c-4.052,2.386-8.353,4.305-12.429,6.644s-7.653,5.457-11.301,8.424c-7.285,5.924-14.221,12.041-19.661,19.766-2.614,3.712-4.828,7.696-6.452,11.941-1.765,4.616-3.141,9.405-4.468,14.162-2.695,9.661-5.227,19.422-7.441,29.205-2.488,10.995-4.497,22.349-4.42,33.655.018,2.573,4.018,2.579,4,0-.067-9.764,1.499-19.507,3.502-29.04,2.017-9.601,4.565-19.122,7.085-28.601,2.382-8.956,4.681-18.265,9.603-26.215,4.765-7.696,11.2-13.878,18.12-19.617,3.921-3.252,7.812-6.805,12.168-9.467,4.435-2.71,9.233-4.765,13.71-7.402,2.217-1.305.206-4.764-2.019-3.454h0Z"></path><path class="h" d="M127.52,80.088c.081,5.053,1.862,10.088,4.177,14.525,2.454,4.705,5.95,9.319,10.621,12.004,1.187.682,2.482,1.246,3.806,1.6.754.202,1.51.27,2.277.4.332.056-.013-.005-.065-.017.117.027.236.061.35.096.208.063.419.115.628.173l-.883-3.343c-.084.103-.616.714-.294.428-.343.305-.789.541-1.168.804-1.02.707-2.037,1.419-3.065,2.115-1.979,1.34-3.995,2.664-6.141,3.725-.395.195-.792.383-1.204.539-.212.08-.428.158-.646.219-.251.071.458.277-.07-.021-.948-.537-1.766-.946-2.577-1.73-1.865-1.804-3.353-4.031-4.508-6.346-.117-.235-.227-.473-.337-.711-.225-.488-.013.011-.214-.514-.259-.677-.506-1.357-.731-2.047-.514-1.581-.94-3.19-1.288-4.815-.703-3.277-1.175-6.744-.74-10.108.166-1.286.521-2.702,1.372-3.817-.21.275.3-.298.407-.401.403-.386-.311.18.154-.13.151-.101.304-.19.463-.278.496-.277-.211.064.111-.061.21-.081.425-.136.642-.195.467-.125.322-.081.921-.094,2.57-.055,2.579-4.055,0-4-9.273.199-8.666,11.927-7.538,18.353.62,3.533,1.575,7.086,3.088,10.349,1.195,2.577,2.885,5.048,4.84,7.108,1.65,1.74,4.341,4.037,6.941,3.353,2.813-.741,5.454-2.532,7.852-4.109,1.272-.836,2.522-1.705,3.771-2.573.987-.686,2.022-1.278,2.785-2.214.922-1.132.679-2.913-.883-3.343-1.058-.291-2.132-.369-3.19-.652-1.289-.344-2.466-.922-3.585-1.644-2.499-1.613-4.556-3.937-6.22-6.38-3.184-4.677-5.772-10.542-5.863-16.247-.041-2.571-4.041-2.579-4,0h0Z"></path><path class="h" d="M157.716,97.736c-.264.391-.536.775-.818,1.153.29-.387-.124.151-.18.219-.127.153-.257.305-.389.453-.488.546-1.018,1.053-1.585,1.515-.438.356.161-.106-.123.098-.147.106-.293.215-.441.319-.311.219-.628.429-.948.635-.743.479-1.5.935-2.253,1.399-1.187.73-1.216,2.136-.405,3.141,1.574,1.951,3.542,3.88,5.796,5.02.93.471,1.9,1.007,2.885,1.359.881.315,1.824.202,2.601-.317.804-.538,1.519-1.338,2.148-2.063s1.145-1.519,1.536-2.39c.826-1.839,1.385-3.906,1.227-5.939-.185-2.381-1.33-4.634-3.79-5.298-1.009-.272-2.219.34-2.46,1.397s.316,2.169,1.397,2.46c.083.022.175.065.26.078.235.035-.383-.212-.188-.083.013.009.389.229.39.228-.138.111-.352-.337-.174-.129.038.045.096.094.141.136.056.051.247.311.036.021-.218-.3.002.015.043.082.059.096.134.338.214.404-.033-.027-.161-.482-.085-.187.017.068.046.135.067.203.048.158.087.318.12.479.011.055.014.244.049.278-.069-.066-.045-.515-.025-.129.018.343.034.682.018,1.026-.009.209-.031.417-.049.625-.022.244-.099.031.022-.152-.054.082-.047.287-.064.381-.067.361-.153.719-.255,1.072-.054.187-.112.372-.175.556-.036.105-.26.5-.225.6-.038-.106.171-.379.052-.129-.036.075-.069.151-.105.227-.088.184-.181.365-.281.543-.133.238-.333.728-.565.876.285-.182.238-.284.075-.107-.048.052-.092.106-.14.158-.155.17-.319.331-.478.497-.285.296-.564.601-.864.882-.138.129-.541.393.05-.015-.3.208.013.005.198-.055-.318.103.396-.015.464-.004.462.071.019-.036-.086-.056-.221-.042.513.25.208.086-.057-.03-.118-.056-.176-.084-.138-.067-.274-.137-.41-.206-.475-.24-.959-.46-1.438-.692-.523-.253-1.018-.559-1.491-.894-.1-.071-.197-.144-.296-.216.315.227-.16-.129-.18-.145-.241-.198-.477-.401-.708-.61-.886-.801-1.71-1.672-2.46-2.602l-.405,3.141c1.569-.965,3.144-1.91,4.575-3.076s2.572-2.628,3.599-4.149c.587-.869.195-2.254-.718-2.736-1.01-.534-2.11-.21-2.736.718h0Z"></path><path class="h" d="M174.874,97.836c2.233,6.056,6.808,10.805,9.664,16.553,1.526,3.07,2.818,6.249,4.189,9.389.842,1.929,2.104,4.427,1.421,6.368-.176.5-.599,1.056-1.115,1.585-.791.811-1.687,1.517-2.568,2.227-1.54,1.239-3.023,2.544-4.562,3.783-3.342,2.69-6.815,5.232-10.342,7.674-1.912,1.323-3.845,2.636-5.87,3.781-.342.193-.687.382-1.038.558-.151.075-.303.148-.455.219-.212.094-.188.085.069-.026-.17.063-.215.081-.135.054-1.1-1.292-1.859-3.1-2.644-4.599-1.195-2.281-4.649-.261-3.454,2.019,1.431,2.732,3.357,7.631,7.297,6.383,1.771-.561,3.444-1.754,4.987-2.748,4.198-2.704,8.231-5.68,12.181-8.732,1.434-1.109,2.844-2.24,4.218-3.422,1.924-1.654,4.168-3.089,5.789-5.063,4.088-4.982.043-11.251-2.096-16.187-1.666-3.844-3.437-7.648-5.795-11.124-2.135-3.148-4.553-6.146-5.883-9.754-.883-2.395-4.75-1.36-3.857,1.063h0Z"></path><path class="h" d="M159.994,139.75c-2.929,6.113-5.659,12.318-8.542,18.452-1.219,2.593-2.358,5.094-3.049,7.892-.703,2.845-1.067,5.759-1.424,8.664-.476,3.875-1.016,7.727-1.853,11.544-.55,2.509,3.305,3.581,3.857,1.063,1.358-6.192,1.65-12.538,2.941-18.731,1.193-5.72,4.141-10.892,6.554-16.17,1.634-3.575,3.271-7.15,4.97-10.695,1.107-2.31-2.341-4.342-3.454-2.019h0Z"></path><path class="h" d="M119.777,129.787c2.361,4.168,4.691,8.355,6.947,12.581,1.113,2.085,2.209,4.18,3.262,6.296.312.626.931,1.418.503,2.119-.453.741-1.972,1.195-2.722,1.59-9.395,4.95-18.737,10.162-28.69,13.927-1.149.435-2.213,1.188-3.23.251-.912-.839-1.736-1.831-2.466-2.83-1.707-2.336-3.03-4.923-3.996-7.646-.855-2.409-4.721-1.371-3.857,1.063.993,2.796,2.259,5.498,3.939,7.95,1.426,2.081,3.412,5.083,5.98,5.794,1.436.398,2.743,0,4.087-.498,1.505-.558,2.996-1.154,4.476-1.776,2.925-1.229,5.81-2.545,8.664-3.93,5.36-2.6,10.61-5.414,15.875-8.199,2.338-1.236,5.245-2.208,5.954-5.063.649-2.611-1.294-5.268-2.438-7.482-2.819-5.456-5.807-10.825-8.833-16.168-1.269-2.24-4.726-.226-3.454,2.019h0Z"></path><path class="h" d="M130.524,81.111c1.555-1.782,3.404-3.357,4.643-5.395.544-.895.226-2.238-.718-2.736-.972-.514-2.156-.238-2.736.718-.193.318-.406.622-.631.917l.313-.405c-1.123,1.453-2.494,2.691-3.699,4.073-.352.403-.586.865-.586,1.414,0,.491.218,1.076.586,1.414.381.35.882.61,1.414.586.509-.023,1.067-.188,1.414-.586h0Z"></path><path class="h" d="M130.524,81.111c1.555-1.782,3.404-3.357,4.643-5.395.544-.895.226-2.238-.718-2.736-.972-.514-2.156-.238-2.736.718-.193.318-.406.622-.631.917l.313-.405c-1.123,1.453-2.494,2.691-3.699,4.073-.352.403-.586.865-.586,1.414,0,.491.218,1.076.586,1.414.381.35.882.61,1.414.586.509-.023,1.067-.188,1.414-.586h0Z"></path><path class="h" d="M167.65,153.936c2.26,3.726,5.302,7.08,8.135,10.371,3.591,4.171,7.293,8.286,11.282,12.083,1.496,1.423,3.071,2.959,4.881,3.981,2.244,1.268,4.248-2.161,2.019-3.454-1.001-.581-1.864-1.343-2.726-2.109l-2.828,2.828c1.427,1.103,2.83,2.391,4.399,3.3,1.326.768,2.775,1.342,4.197,1.901,3.975,1.563,8.079,2.809,12.174,4.017,7.842,2.313,15.761,4.353,23.684,6.366.626.159,1.261.271,1.884.424,1.189.293,2.132,1.075,2.994,1.911,1.824,1.767,3.363,4.038,6.074,4.34,1.075.12,2-1.005,2-2,0-1.181-.922-1.88-2-2,.42.047-.126-.201.13.019-.146-.125-.365-.203-.523-.318.245.178-.339-.302-.297-.263-.183-.169-.361-.342-.536-.518-.853-.857-1.644-1.776-2.548-2.582-.985-.879-2.042-1.625-3.269-2.12-.957-.386-1.563-.403-2.23-.592-2.924-.829-5.901-1.498-8.841-2.265-8.657-2.259-17.379-4.526-25.795-7.583-1.815-.659-2.875-1.038-4.464-1.858-.282-.146-.563-.296-.834-.462-.182-.111-.969-.662-.256-.136-1.055-.779-2.077-1.607-3.114-2.409-.854-.66-1.996-.832-2.828,0-.73.73-.811,2.108,0,2.828,1.107.983,2.25,1.989,3.535,2.735l2.019-3.454c-.261-.147-.511-.309-.757-.481-.124-.087-.246-.177-.368-.267-.064-.047-.29-.228.013.011-.092-.072-.184-.145-.274-.22-.741-.618-1.465-1.254-2.171-1.912-1.822-1.7-3.562-3.49-5.27-5.305-3.705-3.936-7.282-8.008-10.663-12.225-1.187-1.481-2.327-2.874-3.374-4.6-1.333-2.198-4.794-.19-3.454,2.019h0Z"></path><path class="h" d="M188.828,134.043c4.412,7.123,9.61,13.78,14.747,20.389,1.259,1.62,2.528,3.232,3.824,4.822.448.549.899,1.096,1.358,1.636.747.877,1.663,1.412,2.647,1.999,5.497,3.281,11.245,6.119,17.098,8.705,5.745,2.538,11.743,5.123,18.047,5.766,1.076.11,2-.998,2-2,0-1.173-.921-1.89-2-2-5.135-.524-10.217-2.682-14.915-4.731-5.616-2.449-11.13-5.117-16.448-8.164-.994-.57-2.325-1.133-3.168-1.901-.509-.464-.935-1.096-1.372-1.627-1.163-1.412-2.299-2.846-3.426-4.287-2.767-3.534-5.475-7.115-8.133-10.731-2.374-3.23-4.694-6.486-6.805-9.894-1.353-2.184-4.815-.178-3.454,2.019h0Z"></path><path class="h" d="M198.846,57.692c-.932,11.715-5.11,24.94-14.756,32.384-4.972,3.837-11.204,6.081-17.492,6.137-6.473.058-12.843-2.487-18.198-6.005-6.163-4.05-10.931-10.734-13.677-17.525-.405-1.001-1.333-1.707-2.46-1.397-.949.261-1.804,1.453-1.397,2.46,2.724,6.736,7.07,13.411,12.81,17.948,5.647,4.464,12.887,7.759,20.098,8.406,6.873.617,13.964-1.231,19.817-4.843,6.007-3.707,10.503-9.254,13.533-15.58,3.294-6.876,5.118-14.399,5.721-21.985.204-2.566-3.797-2.553-4,0h0Z"></path><path class="h" d="M133.905,50.735c-2.692-3.082-7.707-2.871-10.059.488-2.01,2.87-2.564,6.814-1.915,10.203.612,3.196,2.114,6.558,4.383,8.919,1.594,1.658,3.45,2.973,5.264,4.371.856.66,2.24.131,2.736-.718.604-1.032.141-2.075-.718-2.736-1.167-.899-2.38-1.747-3.453-2.757-1.709-1.608-2.933-3.471-3.702-5.706-.873-2.537-1.038-5.022-.185-7.596.304-.917.858-2.094,1.794-2.494,1.134-.485,2.258-.025,3.026.854,1.697,1.942,4.516-.896,2.828-2.828h0Z"></path><path class="j" d="M123.191,57.801c-2.151-5.993-2.1-13.024-1.735-17.417.579-6.965,2.689-13.754,6.474-19.529,1.586-2.42,3.439-4.64,5.495-6.625.828-.799,2.084-1.966,2.936-2.672,1.359-1.127,4.355-3.043,7.056-4.437,1.969-1.016,4.013-1.87,6.109-2.541,4.634-1.483,9.487-2.033,14.311-1.836,9.522.387,17.49,3.585,23.765,8.657,7.286,5.888,15.389,16.179,15.414,32.302.006,3.854-.944,9.608-1.34,11.571"></path><path class="h" d="M367.106,231.36c-1.079-3.045-2.746-5.899-5.297-7.942-3.018-2.417-6.673-3.525-10.492-3.822-5.184-.404-10.473-.017-15.651.295-6.373.384-12.74.921-19.087,1.615-2.592.283-5.182.593-7.762.973-1.624.239-3.289.455-4.845.997-6.624,2.303-10.301,8.698-11.658,15.264-1.346,6.511-1.839,15.338,3.93,19.906,3.175,2.514,6.72,2.612,10.59,2.616,4.286.005,8.571-.036,12.856-.075,8.549-.078,17.129.108,25.67-.294,3.535-.166,7.073-.411,10.588-.835,2.506-.302,5.292-.51,7.593-1.645,7.027-3.469,6.58-13.741,5.399-20.158-.431-2.343-1.065-4.64-1.834-6.893-.827-2.422-4.692-1.382-3.857,1.063,1.365,3.997,2.338,8.17,2.374,12.411.024,2.86-.3,6.172-2.121,8.514-.33.424-.734.821-1.171,1.133-.256.183-.533.327-.808.477-.287.156.064-.022.111-.04-.121.047-.243.092-.367.131-.995.308-2.014.512-3.04.684-3.029.506-6.109.743-9.17.949-7.446.5-14.906.38-22.364.442-4.323.036-8.646.082-12.968.112-3.592.025-7.322.301-10.902-.022-2.932-.265-5.555-2.346-6.57-5.093-1.005-2.72-.815-6.092-.574-8.933.464-5.472,2.405-11.907,7.393-14.912,1.554-.936,3.217-1.349,4.98-1.651,2.15-.369,3.688-.555,5.82-.809,5.728-.682,11.478-1.201,17.232-1.619,5.461-.397,10.946-.742,16.424-.724,5.171.017,10.721.718,13.895,5.335.771,1.122,1.374,2.336,1.829,3.618.854,2.41,4.72,1.372,3.857-1.063Z"></path><path class="h" d="M162.772,83.743c1.258,1.365,3.116,2.161,4.896,2.553,1.501.331,3.024.481,4.547.242.961-.151,1.84-.551,2.701-.992.933-.478,1.28-1.864.718-2.736-.614-.952-1.738-1.228-2.736-.718-.146.075-.291.15-.438.221-.069.034-.14.064-.208.099-.327.166.481-.178.125-.052-.179.064-.356.129-.539.179-.176.048-.469.045-.623.132.138-.078.435-.048.08-.02-.117.009-.235.015-.352.018-.293.008-.585-.002-.877-.024-.15-.011-.299-.027-.449-.043-.59-.063.392.076-.166-.026-.291-.053-.58-.104-.868-.172-.47-.11-.934-.246-1.384-.419-.21-.08-.323-.237.039.02-.072-.051-.172-.079-.251-.117-.168-.082-.333-.169-.494-.264-.13-.076-.257-.156-.382-.241-.066-.045-.13-.105-.2-.143.464.252.322.26.169.128-.166-.145-.328-.292-.477-.454-.711-.771-2.118-.774-2.828,0-.757.825-.758,2.006,0,2.828h0Z"></path><path class="h" d="M170.504,69.817c.01.07.02.14.029.211l-.071-.532c.071.532.134,1.065.187,1.599.049.499.135,1.039.076,1.539l.071-.532c-.012.08-.03.155-.057.231l.202-.478c-.024.056-.051.105-.088.154l.313-.405c-.018.023-.038.043-.061.062l.405-.313c-.038.029-.072.05-.115.071l.478-.202c-.144.059-.287.104-.44.13l.532-.071c-.134.018-.265.019-.399.002l.532.071c-.194-.031-.375-.104-.564-.152-.509-.129-1.085-.066-1.541.202-.415.243-.811.718-.919,1.195-.117.512-.091,1.087.202,1.541.279.433.684.789,1.195.919.19.048.371.119.564.152.596.103,1.183.124,1.767-.08.45-.157.824-.326,1.165-.668.309-.31.488-.663.631-1.069.136-.389.156-.825.134-1.235-.062-1.141-.207-2.277-.368-3.408-.065-.46-.539-.973-.919-1.195-.429-.251-1.061-.357-1.541-.202-.484.157-.951.457-1.195.919l-.202.478c-.095.354-.095.709,0,1.063h0Z"></path><path class="h" d="M153.95,59.084c-.747,1.699-.864,5.792,2.434,6.525,4.414.485,5.218-4.387,4.001-6.863-.997-2.027-4.481-3.227-6.434.338Z"></path><path class="h" d="M181.669,61.198c-.766,1.627-1.092,5.598,1.844,6.408,3.958.604,4.946-4.103,3.981-6.543-.79-1.998-3.87-3.268-5.825.135Z"></path><path class="h" d="M184.502,41.189c3.378,1.899,6.044,4.534,8.429,7.574,2.429,3.096,4.591,6.611,5.709,10.406.726,2.464,4.587,1.415,3.857-1.063-1.289-4.378-3.741-8.334-6.53-11.907-2.651-3.396-5.676-6.344-9.446-8.465-2.247-1.263-4.265,2.191-2.019,3.454h0Z"></path><path class="h" d="M141.964,53.766c4.687-4.263,9.799-8.325,15.376-11.364.617-.336,1.243-.658,1.882-.951.481-.221.679-.12-.015-.437-.999-.455-.342-.276-.433.042-.059.207.033.546.026.768-.025.803-.286,1.555-.098,2.362.199.855.701,1.646,1.457,2.122,1.597,1.004,3.143.167,4.658-.515,1.382-.622,2.757-1.259,4.137-1.887,3.298-1.501,6.617-3.006,10.079-4.094,2.447-.769,1.402-4.632-1.063-3.857-3.239,1.018-6.365,2.397-9.459,3.785-1.513.679-3.019,1.374-4.527,2.062-.624.285-1.249.569-1.876.847-.056.025-.37.121-.392.173l-.128.056.994.411c.121-.024.18-.827.2-1.114.12-1.694-.248-3.683-1.865-4.57-1.554-.853-3.164.1-4.568.804-2.983,1.497-5.767,3.402-8.449,5.378-3.036,2.237-5.976,4.613-8.766,7.151-1.908,1.736.927,4.558,2.828,2.828h0Z"></path><path class="h" d="M194.655,13.365c-4.951-6.242-12.715-10.206-20.346-12.032-9.421-2.255-20.119-1.74-29.024,2.241-4.156,1.858-7.668,4.703-10.434,8.303-.659.857-.132,2.24.718,2.736,1.031.603,2.076.142,2.736-.718,4.653-6.054,12.232-8.741,19.59-9.543,8.786-.958,17.848.409,25.575,4.841,3.178,1.823,6.072,4.12,8.357,6.999.672.847,2.126.702,2.828,0,.837-.837.674-1.979,0-2.828h0Z"></path><path class="h" d="M203.705,58.224c4.803-14.986,2.164-33.049-10.076-43.799-1.927-1.693-4.767,1.126-2.828,2.828,11.229,9.861,13.445,26.186,9.048,39.907-.788,2.457,3.073,3.509,3.857,1.063h0Z"></path><path class="h" d="M130.738,15.843c-11.602,9.433-12.884,27.428-9.575,40.963.611,2.499,4.469,1.441,3.857-1.063-2.996-12.257-1.965-28.525,8.546-37.071.839-.682.709-2.12,0-2.828-.829-.829-1.988-.684-2.828,0h0Z"></path></g></g></svg>